<svg width="840" height="258" viewBox="0 0 840 258" fill="none" xmlns="http://www.w3.org/2000/svg">
<path d="M386.172 411.993H384.092C390.902 407.53 397.677 403.025 399.455 401.913C411.12 394.634 421.79 389.162 433.401 384.966C443.982 381.135 451.29 376.424 458.563 369.572C459.63 368.576 460.696 367.539 461.941 366.255L465.178 362.993C471.846 356.278 476.327 352.831 483.137 349.961C490.037 347.056 494.873 343.335 498.857 338.445C499.924 337.107 500.937 335.706 502.057 334.003L504.778 329.787C507.178 326.154 508.992 324.087 511.5 322.549C514.914 320.434 517.296 317.997 520.444 313.802C521.269 312.7 522.075 311.597 522.863 310.492C523.894 309.091 524.712 308.02 525.565 306.942C527.605 304.33 530.009 301.763 532.767 299.251C534.812 297.397 539.756 295.475 547.704 293.223C553.028 291.741 558.484 290.333 564.064 288.999C580.191 285.051 584.94 283.795 589.865 281.968C592.531 280.975 595.037 279.92 597.37 278.809C600.748 277.209 610.777 271.675 612.911 270.7C614.934 269.687 617.438 268.831 620.29 268.18C624.38 267.329 628.416 266.875 636.063 266.271C654.93 264.781 662.398 263.854 675.361 260.641C686.617 257.846 692.93 255.971 698.46 253.891C699.314 253.568 700.167 253.238 701.092 252.861L707.422 250.286C710.268 249.139 712.97 248.102 716.135 246.949C724.665 243.808 734.981 241.482 746.259 240.157C760.715 238.441 773.767 238.29 794.661 238.949C805.01 239.272 805.97 239.299 809.206 239.299C827.895 239.299 840.378 239.382 855.049 239.732C862.25 239.897 868.918 240.116 875 240.398V241.016C857.964 240.24 836.181 239.986 809.206 239.986C805.899 239.986 804.938 239.958 794.519 239.629C773.838 238.984 760.964 239.134 746.774 240.817C735.759 242.108 725.68 244.377 717.344 247.443C714.215 248.59 711.53 249.626 708.72 250.759C707.653 251.192 703.456 252.909 702.372 253.335C701.497 253.687 700.607 254.036 699.705 254.378C694.086 256.5 687.684 258.402 676.321 261.217C663.127 264.493 655.499 265.44 636.419 266.944C628.932 267.534 625.038 267.974 621.126 268.784C618.904 269.251 616.716 270.013 614.262 271.139C612.217 272.087 602.171 277.615 598.756 279.242C596.266 280.416 593.759 281.48 591.11 282.469C586.042 284.337 581.259 285.6 565.023 289.583C559.475 290.906 554.048 292.303 548.753 293.772C541.054 295.969 536.288 297.823 534.404 299.519C531.736 301.922 529.478 304.367 527.255 307.141C525.875 308.872 524.57 310.612 523.343 312.359L522.151 313.994C518.968 318.244 516.532 320.73 512.994 322.906C510.629 324.376 508.85 326.395 506.503 329.958L503.783 334.174C502.663 335.891 501.649 337.299 500.546 338.652C496.51 343.623 491.549 347.434 484.453 350.427C477.838 353.208 473.428 356.608 466.849 363.241L463.613 366.502C462.333 367.786 461.283 368.83 460.217 369.832C452.837 376.768 445.422 381.554 434.611 385.461C423.141 389.615 412.561 395.04 400.967 402.277C399.26 403.348 392.787 407.647 386.154 411.993H271.318C285.811 409.247 297.724 406.143 303.148 403.273C306.385 401.549 310.296 399.578 315.453 397.065C318.391 395.635 321.343 394.209 324.309 392.787L326.122 391.915C328.438 390.802 330.75 389.687 333.057 388.571C343.727 383.387 350.929 379.713 356.512 376.479C360.175 374.351 361.455 373.829 369.191 370.945C379.984 366.935 384.519 362.897 388.661 350.929C391.329 343.17 397.392 337.168 408.346 329.814C410.018 328.681 415.939 324.822 415.637 325.028C418.447 323.174 420.42 321.808 422.145 320.469C427.124 316.603 429.561 313.28 429.561 309.681C429.561 297.919 450.027 281.226 470.156 274.229C493.985 265.955 519.413 252.655 525.565 243.158C528.855 238.077 538.102 235.021 551.687 233.517C559.511 232.652 566.411 232.433 576.262 232.433C577.72 232.433 578.004 232.439 582.717 232.598C591.927 232.906 598.223 232.838 606.296 232.069C617.321 231.018 628.701 228.711 640.847 224.797C670.453 215.273 723.675 209.086 768.308 209.086C772.557 209.086 775.883 209.1 783.867 209.128C803.072 209.21 811.963 209.196 822.899 208.976C842.779 208.592 859.761 207.541 875 205.543V204.822C859.778 206.841 842.779 207.905 822.81 208.29C811.91 208.503 803.072 208.523 783.867 208.441C775.9 208.413 772.557 208.4 768.308 208.4C723.284 208.4 669.671 214.628 639.708 224.275C627.758 228.12 616.609 230.373 605.869 231.403C598.045 232.151 591.91 232.213 582.876 231.911C578.076 231.753 577.791 231.746 576.262 231.746C566.268 231.746 559.244 231.966 551.189 232.858C537.052 234.424 527.291 237.644 523.823 242.993C517.777 252.332 492.544 265.529 468.983 273.721C448.481 280.842 427.782 297.72 427.782 309.681C427.782 313.163 425.417 316.39 420.545 320.16C418.838 321.485 416.899 322.838 414.108 324.678C414.428 324.472 408.489 328.338 406.8 329.471C395.757 336.9 389.604 342.971 386.884 350.833C382.793 362.664 378.437 366.557 367.963 370.45C360.121 373.369 358.787 373.911 355.018 376.095C349.488 379.308 342.322 382.968 331.652 388.146C329.355 389.26 327.05 390.373 324.736 391.483L322.921 392.362C319.967 393.787 317.014 395.213 314.066 396.64C308.909 399.16 304.962 401.137 301.708 402.868C296.035 405.868 282.929 409.157 267.211 411.993H386.172ZM179.491 411.993C179.509 411.567 179.598 411.121 179.723 410.654C180.843 406.445 185.857 401.158 192.97 395.664C196.207 393.165 197.718 389.855 197.79 385.935C197.861 382.707 196.954 379.26 195.424 375.82C194.891 374.653 194.34 373.582 193.771 372.613C193.313 371.809 192.975 370.995 192.757 370.176C191.934 366.369 191.412 362.555 191.192 358.736C190.908 351.581 192.508 346.925 196.047 346.397C197.772 346.136 200.581 346.809 204.706 348.478C206.432 349.171 208.316 350.002 211.019 351.251C213.407 352.346 215.79 353.443 218.167 354.541C220.302 355.495 221.582 356.669 222.613 358.317C222.898 358.798 222.968 358.908 223.574 360.13C224.819 362.554 225.796 363.584 228.249 364.353C231.38 365.321 236.323 365.314 244.04 364.25C256.185 362.574 261.911 360.322 262.409 357.253C262.818 354.761 260.115 352.035 253.412 347.283C249.02 344.172 240.431 342.6 226.276 341.57C224.729 341.453 223.111 341.35 221.19 341.226L216.283 340.931C204.582 340.21 199.923 339.626 198.305 338.37C197.593 337.814 196.989 337.278 196.527 336.75C195.157 335.191 194.713 333.591 194.891 331.188C195.016 329.615 196.669 321.094 196.545 321.732C198.981 307.621 205.524 301.957 223.2 296.264C226.358 295.259 229.584 294.286 232.874 293.346L238.368 291.767L244.272 290.043C253.803 287.228 259.351 285.195 264.045 282.909C264.97 282.462 265.895 281.995 266.926 281.446L272.154 278.624C274.425 277.416 276.791 276.234 279.249 275.081C285.899 271.957 294.541 268.393 306.597 263.923C321.854 258.258 330.675 255.834 334.96 255.889C337.894 255.937 338.712 257.015 339.192 260.551C339.352 261.657 339.406 262.027 339.548 262.598C339.975 264.623 340.846 266.093 342.535 267.274C349.914 272.41 355.445 275.26 363.126 276.852C374.063 279.119 386.03 277.402 399.153 270.748C410.355 265.063 417.593 263.126 425.755 262.982C427.835 262.941 429.187 262.982 433.632 263.16C445.138 263.634 452.57 263.332 464.609 261.238C469.302 260.456 473.786 259.5 477.999 258.381C485.058 256.445 488.206 254.625 491.673 251.103C491.958 250.808 493.86 248.809 494.5 248.171C495.709 246.935 496.919 245.85 498.306 244.731C501.862 241.86 506.485 238.963 512.958 235.736C524.534 229.94 538.849 226.651 557.52 224.763C564.988 224.007 569.629 223.699 584.567 222.84C599.858 221.975 607.043 221.35 613.995 220.039C621.606 218.597 661.278 211.847 665.35 211.133C673.371 209.734 681.321 208.276 689.195 206.759C703.616 203.964 714.215 201.533 720.865 199.391C732.352 195.697 746.418 193.225 771.402 189.935C774.717 189.498 778.036 189.066 781.36 188.638C790.873 187.402 796.652 186.605 802.431 185.713C829.674 181.503 849.216 168.251 849.216 153.811C849.216 146.12 844.344 139.679 834.012 132.511C828.447 128.665 829.709 129.386 808.158 117.226C790.73 107.386 789.077 105.072 795.888 103.17C796.777 102.916 800.76 101.927 800.813 101.913C804.522 100.884 808.029 99.7498 811.304 98.521C812.709 98.0199 821.743 94.7306 824.552 93.7353C829.176 92.1009 833.106 90.7826 836.876 89.6288C841.099 88.2922 845.663 87.1234 850.496 86.1409C855.066 85.2551 859.832 84.8363 869.345 84.3143C871.23 84.21 873.116 84.1047 875 83.9982V83.3118L869.096 83.6343C859.405 84.1631 854.515 84.596 849.714 85.5227C844.767 86.5282 840.096 87.7242 835.772 89.0932C831.967 90.2607 827.984 91.5858 823.361 93.2338C820.533 94.2296 811.482 97.5184 810.096 98.0131C806.884 99.2163 803.449 100.327 799.817 101.336C799.817 101.336 795.799 102.346 794.839 102.613C786.837 104.845 788.722 107.475 806.699 117.61C828.18 129.743 826.935 129.022 832.448 132.847C842.636 139.92 847.438 146.237 847.438 153.811C847.438 167.99 828.286 180.981 801.755 185.081C794.835 186.128 787.837 187.099 780.773 187.993C777.454 188.423 774.135 188.854 770.815 189.283C745.636 192.6 731.446 195.099 719.728 198.869C713.219 200.963 702.71 203.373 688.413 206.148C681.425 207.5 673.636 208.922 664.621 210.508C660.566 211.215 620.859 217.978 613.213 219.421C606.473 220.691 599.414 221.309 584.318 222.167C569.309 223.019 564.633 223.335 557.075 224.097C538.048 226.019 523.396 229.391 511.553 235.31C505.771 238.137 500.793 241.197 496.705 244.436C495.282 245.575 494.073 246.681 492.829 247.923C492.188 248.569 490.286 250.574 490.001 250.863C486.658 254.261 483.689 255.971 476.967 257.825C473.588 258.752 469.321 259.665 463.862 260.613C452.161 262.652 445.03 262.941 433.81 262.481C431.114 262.33 428.389 262.268 425.666 262.295C416.882 262.446 409.236 264.499 397.749 270.329C385.106 276.736 374.027 278.335 363.962 276.248C356.689 274.738 351.302 271.957 344.1 266.944C342.535 265.866 341.735 264.472 341.308 262.536C341.183 261.987 341.131 261.615 340.971 260.51C340.437 256.548 339.459 255.271 335.031 255.209C330.034 255.14 321.037 257.612 305.353 263.428C293.261 267.912 284.566 271.497 277.879 274.641C275.266 275.871 273.043 276.99 270.714 278.212L265.485 281.041C264.454 281.583 263.565 282.044 262.658 282.483C258.035 284.721 252.611 286.713 243.205 289.494C241.245 290.07 239.277 290.642 237.301 291.211L231.806 292.796C227.556 294.033 224.694 294.884 222.062 295.742C203.978 301.558 197.238 307.402 194.856 321.334C194.891 321.032 193.255 329.574 193.113 331.167C192.935 333.653 193.397 335.321 194.856 336.976C195.335 337.525 195.958 338.088 196.705 338.672C198.732 340.231 203.586 340.849 215.998 341.604L220.906 341.906C222.809 342.023 224.409 342.133 225.938 342.249C239.613 343.238 247.793 344.735 251.846 347.606C258.39 352.247 261.005 354.884 260.631 357.212C260.187 359.958 254.994 362.012 243.436 363.598C236.252 364.593 231.895 364.6 229.353 363.817C227.361 363.199 226.472 362.252 225.316 359.993C225.028 359.378 224.702 358.767 224.338 358.159C223.271 356.415 221.848 355.145 219.519 354.087C217.107 353.005 214.731 351.911 212.388 350.805C210.333 349.845 208.198 348.911 205.987 348.004C201.363 346.129 198.11 345.353 195.406 345.752C190.712 346.452 189.112 351.121 189.414 358.75C189.575 362.585 190.097 366.417 190.978 370.238C191.673 372.133 191.85 372.435 192.046 372.765C192.579 373.726 193.148 374.79 193.663 375.937C195.207 379.236 195.993 382.582 196.011 385.935C195.94 389.752 194.482 392.966 191.388 395.362C184.186 400.924 179.118 406.273 177.945 410.586C177.82 411.066 177.749 411.547 177.713 411.993H179.491ZM0 411.993H2.66725C31.2074 406.074 55.2131 400.135 66.5403 395.754C72.2305 393.563 75.2534 390.521 76.427 386.456C77.2806 383.401 77.1383 380.771 76.0714 373.286C75.0934 366.482 75.289 362.767 77.4585 359.196C79.5094 355.813 80.7652 352.366 81.2105 348.897L81.4594 347.352C82.7931 338.775 84.6246 334.051 91.6659 324.884C94.0316 321.794 96.0937 318.519 97.8541 315.065C101.495 307.672 103.853 300.194 104.914 292.68C105.714 287.489 105.928 283.609 105.928 278.782C105.928 275.074 108.79 270.611 115.139 266.422C123.798 260.723 138.024 256.081 158.704 253.012C164.718 252.147 170.544 251.1 176.131 249.88C187.156 247.409 192.117 245.129 197.79 240.693L201.274 237.926C206.038 234.139 212.175 230.634 219.501 227.516C232.536 221.886 249.073 218.095 282.805 212.039L290.789 210.611C318.707 205.598 332.221 202.714 343.905 198.697C359.304 193.41 369.546 184.793 379.611 171.018C381.798 168.018 388.644 157.944 388.733 157.807C392.058 153.055 394.672 149.787 397.482 147.074C404.985 139.83 416.188 134.227 444.64 122.094L447.378 120.927C461.177 115.035 468.538 111.719 475.616 108.011C480.772 105.299 485.698 102.518 491.46 99.1047C493.842 97.6901 503.196 92.0323 505.578 90.6382C518.915 82.7281 528.766 77.9147 541.285 73.7328C546.182 72.0826 551.449 70.6028 557.022 69.3109C569.309 66.475 580.405 65.0055 601.673 62.9935L612.804 61.936C617.161 61.524 620.877 61.1465 624.505 60.7549C643.532 58.7157 655.374 56.017 672.356 50.6063L681.176 47.7912C684.261 46.8044 687.403 45.8453 690.601 44.9138C693.994 43.9143 697.759 43.1184 701.767 42.5517C707.511 41.7554 712.259 41.5083 722.999 41.2679C740.87 40.8696 749.743 40.2927 763.311 38.0886C769.926 37.0106 788.242 34.2019 791.407 33.6872C795.908 32.9654 800.301 32.1469 804.565 31.2356C813.705 29.2581 822.561 26.6284 834.706 22.2267C846.015 18.1342 854.088 16.1363 863.158 14.9416C865.976 14.5769 868.836 14.2607 871.728 13.994L875 13.6779V12.9706L871.301 13.3276C867.584 13.6847 865.096 13.9595 862.588 14.2893C853.252 15.5249 844.983 17.5713 833.496 21.7324C821.44 26.0928 812.692 28.688 803.676 30.6382C799.475 31.5368 795.147 32.3438 790.713 33.0553C787.583 33.5705 769.268 36.3788 762.618 37.4499C749.281 39.6267 740.568 40.1896 722.911 40.5811C711.992 40.8214 707.12 41.0754 701.163 41.9062C696.989 42.4959 693.069 43.3246 689.533 44.3647C686.51 45.2368 683.541 46.1499 680.038 47.2624L671.236 50.0843C654.414 55.4405 642.785 58.0907 624.042 60.1026C620.415 60.4873 616.716 60.8581 612.378 61.2769L601.246 62.3276C579.836 64.36 568.598 65.8499 556.098 68.7272C550.62 69.9905 545.339 71.4737 540.111 73.2181C527.451 77.4545 517.528 82.3092 504.085 90.2675C501.719 91.6752 492.348 97.3263 489.966 98.734C484.24 102.14 479.332 104.914 474.194 107.606C467.17 111.293 459.825 114.603 446.062 120.474L443.324 121.641C414.712 133.836 403.439 139.48 395.846 146.82C393 149.567 390.351 152.863 387.026 157.636C386.919 157.78 380.091 167.846 377.904 170.833C367.928 184.497 357.793 193.025 342.731 198.196C331.208 202.151 317.8 205.015 290.025 209.993L282.023 211.428C248.113 217.519 231.415 221.343 218.185 227.063C210.753 230.226 204.527 233.782 199.692 237.624L196.189 240.398C190.677 244.724 185.929 246.9 175.26 249.297C169.746 250.496 163.996 251.524 158.064 252.373C137.011 255.504 122.465 260.249 113.609 266.086C107.101 270.377 104.149 274.964 104.149 278.789C104.149 283.602 103.936 287.475 103.135 292.639C102.076 300.123 99.7229 307.571 96.0937 314.934C94.3509 318.368 92.3064 321.629 89.9592 324.698C82.8819 333.92 81.0326 338.692 79.6812 347.317L79.4322 348.855C78.7743 352.81 77.8318 355.584 75.7158 359.052C73.493 362.698 73.3152 366.461 74.4711 374.57C75.3602 380.778 75.5024 383.387 74.6489 386.388C73.5464 390.309 70.6301 393.213 65.2955 395.28C53.8261 399.702 29.0736 405.786 0 412V411.993ZM800.564 411.993C792.384 411.114 781.804 410.482 764.556 409.707L760.929 409.542L757.319 409.384C729.401 408.134 718.234 407.276 713.806 405.573C709.432 403.884 704.861 403.485 698.443 403.843C697.376 403.911 696.486 403.966 694.619 404.11C688.325 404.584 685.657 404.639 682.457 404.165C678.224 403.54 674.614 401.892 671.325 398.816C667.608 395.328 662.718 394.339 656.316 395.458C653.739 395.912 650.946 396.688 647.408 397.875C645.274 398.59 636.81 401.638 637.575 401.364C625.66 405.587 617.41 407.53 608.27 407.53C603.79 407.482 599.351 407.865 595.35 408.644C591.348 409.423 587.912 410.574 585.349 411.993H587.589C590.021 410.778 593.161 409.803 596.756 409.146C600.35 408.49 604.295 408.171 608.27 408.217C617.997 408.217 626.567 406.205 638.783 401.872C638.036 402.133 646.483 399.098 648.564 398.39C651.996 397.244 654.663 396.502 657.046 396.083C662.452 395.143 666.328 395.925 669.671 399.077C673.138 402.311 677.068 404.104 681.816 404.804C685.443 405.339 688.342 405.284 694.975 404.783C696.806 404.646 697.66 404.577 698.691 404.522C704.612 404.193 708.631 404.543 712.561 406.054C717.433 407.935 728.493 408.786 757.123 410.064L760.732 410.228L764.36 410.386C776.826 410.949 785.805 411.437 792.865 411.993H800.564ZM690.031 411.993C684.466 411.032 672.427 408.951 670.169 408.594C665.67 407.894 663.411 407.736 660.958 407.969C659.464 408.107 652.636 409.377 651.48 409.562C645.027 410.584 638.366 411.397 631.564 411.993H638.659C643.259 411.505 647.773 410.905 652.173 410.194C653.507 409.981 660.104 408.759 661.385 408.635C663.376 408.443 665.332 408.58 669.511 409.233C671.325 409.514 679.647 410.949 685.675 411.993H690.031ZM538.724 411.993C541.676 410.86 543.881 409.48 546.068 407.599C546.246 407.427 555.795 398.006 561.058 393.591C568.741 387.171 571.55 382.124 570.393 377.777C569.451 374.289 566.393 371.583 559.867 367.635L556.186 365.438C554.116 364.224 552.176 362.978 550.371 361.703C546.495 358.922 540.058 359.471 531.754 362.712C525.21 365.26 517.653 369.304 507.214 375.573L502.2 378.635C482.052 390.961 481.751 391.146 475.989 393.927C459.985 401.652 451.058 407.447 449.138 411.993H450.952C452.908 407.619 461.621 401.954 477.377 394.353C483.208 391.538 483.494 391.373 503.694 378.999C505.36 377.978 507.038 376.96 508.726 375.944C519.093 369.716 526.596 365.699 533.016 363.193C540.627 360.233 545.694 359.793 548.807 362.025C550.425 363.193 552.15 364.284 554.675 365.802L558.373 367.999C564.757 371.872 567.708 374.488 568.616 377.846C569.754 382.055 567.015 386.992 559.458 393.309C554.158 397.745 544.609 407.166 544.45 407.317C542.013 409.404 539.631 410.819 536.11 411.993H538.724ZM465.16 411.993H466.938C467.4 407.489 472.503 403.678 483.084 398.459L489.628 395.28C491.624 394.311 493.488 393.303 495.212 392.259C496.137 391.696 501.133 388.475 501.897 387.988C505.454 385.715 508.655 383.765 511.855 381.897C515.146 379.97 518.659 378.1 522.382 376.294C528.997 373.128 534.652 371.213 539.009 370.821C543.756 370.389 547.064 371.838 548.718 375.662C551.882 383.009 548.628 390.027 540.449 396.571C535.001 400.933 527.665 404.904 518.755 408.313C514.719 409.722 510.294 410.957 505.561 411.993H508.975C512.909 411.075 516.595 410.008 519.982 408.807C529.046 405.341 536.51 401.303 542.049 396.866C550.371 390.206 553.697 383.044 550.46 375.545C548.682 371.384 544.61 369.606 538.6 370.155C533.728 370.595 527.841 372.579 520.995 375.861C517.617 377.475 514.096 379.363 510.38 381.519C507.143 383.394 503.96 385.351 500.386 387.631C499.604 388.125 494.624 391.339 493.718 391.902C492.296 392.767 490.588 393.687 488.223 394.854C487.121 395.404 482.71 397.532 481.697 398.033C470.85 403.369 465.622 407.296 465.16 411.993ZM190.25 411.993H192.028C191.601 410.791 192.437 409.041 194.784 406.623C201.452 399.75 203.799 397.148 206.804 393.474C207.8 392.252 208.281 391.668 209.01 390.817C209.899 389.8 210.361 388.647 211.072 386.189C211.249 385.584 211.427 384.98 211.606 384.376C213.278 379.02 215.998 376.63 222.4 376.63C230.313 376.63 245.837 378.615 268.295 382.096C272.699 382.75 277.215 383.284 281.809 383.696C283.857 383.894 285.908 384.086 287.962 384.273C301.512 385.55 307.007 386.45 308.713 388.091C310.278 389.608 309.78 391.318 307.433 393.22C304.428 395.61 298.649 398.178 290.594 400.91C287.571 401.954 284.388 402.95 280.689 404.062L273.399 406.232C267.655 408.011 251.686 410.4 237.425 411.993H243.56C256.363 410.421 269.344 408.374 274.519 406.768C275.497 406.466 280.672 404.934 281.792 404.605C285.526 403.485 288.727 402.476 291.785 401.432C299.983 398.631 305.904 396.008 309.034 393.515C311.595 391.462 312.145 389.553 310.35 387.83C308.34 385.88 302.632 384.946 288.389 383.607C286.339 383.414 284.287 383.222 282.236 383.03C276.546 382.481 272.546 382.021 268.971 381.464C246.21 377.935 230.65 375.944 222.4 375.944C214.629 375.944 211.624 378.58 209.827 384.293C209.637 384.899 209.459 385.506 209.294 386.113C208.601 388.516 208.157 389.649 207.339 390.597C206.592 391.462 206.094 392.039 205.098 393.261C202.11 396.928 199.763 399.517 193.113 406.376C190.766 408.8 189.841 410.647 190.25 411.993ZM800.547 0H792.847C797.044 0.329346 800.582 0.686401 803.782 1.09842C814.506 2.47165 818.471 4.2569 815.501 6.72217C799.764 19.7481 772.576 29.8691 745.191 29.8691C716.385 29.8691 688.307 34.2433 662.861 41.6109C658.415 42.9019 655.036 44.1244 652.191 45.4085C651.089 45.9096 650.093 46.4038 648.99 46.9876L646.448 48.3608C641.682 50.8879 637.058 52.014 624.06 53.2223C618.601 53.7375 615.134 54.17 600.481 56.1064L597.138 56.5389C580.103 58.7639 570.518 59.6701 563.975 59.4026C556.098 59.0728 554.675 56.7933 561.058 51.6433C563.579 49.6024 565.777 47.504 567.637 45.3604C575.942 35.8227 577.952 26.8478 577.276 16.0677L577.187 14.7285L577.151 13.7328C577.154 10.1891 578.942 6.67914 582.415 3.39877C583.744 2.18277 585.484 1.03961 587.589 0H585.349C583.53 0.972717 581.997 2.02042 580.778 3.12396C576.871 6.80524 575.04 10.7661 575.408 14.7422L575.497 16.0813C576.173 26.7933 574.163 35.6992 565.948 45.1406C564.114 47.2586 561.946 49.3314 559.458 51.348C552.629 56.8687 554.39 59.6978 563.779 60.0822C570.696 60.3706 580.388 59.4503 597.708 57.1912L601.051 56.752C615.632 54.8291 619.099 54.3966 624.487 53.8955C637.859 52.6459 642.873 51.4303 647.888 48.766L650.431 47.3928C651.498 46.8159 652.476 46.3353 653.542 45.8478C656.636 44.4724 660.119 43.2356 663.927 42.1606C689.089 34.8751 716.811 30.556 745.191 30.556C773.429 30.556 801.116 20.256 817.12 7.01062C820.693 4.05792 815.946 1.93607 804.352 0.446075C803.143 0.288025 801.88 0.144012 800.564 0H800.547ZM690.014 0H685.657L691.471 1.00211C700.007 2.44437 709.841 3.37836 721.292 3.92755C730.717 4.38046 737.83 4.50446 754.189 4.64163C770.762 4.77884 776.861 4.98508 780.951 5.76096C785.574 6.63995 785.13 8.28076 778.284 11.4533C752.855 23.2224 737.563 26.4358 709.609 26.4358C696.86 26.4358 687.578 27.1913 678.17 28.9765C669.866 30.5355 666.399 31.4831 643.283 38.178C637.706 39.7464 632.477 41.4921 627.652 43.3966C625.729 44.1695 623.913 44.9808 622.211 45.8274C621.677 46.0881 621.286 46.2667 620.894 46.4384C619.266 47.1891 617.257 47.804 614.991 48.2441C611.596 48.8815 608.062 49.4009 604.429 49.7963L602.295 50.0502L600.25 50.2973C598.632 50.4963 597.494 50.6271 596.409 50.7507C593.688 51.0596 591.643 51.2586 589.9 51.3753C585.989 51.6365 583.695 51.458 582.521 50.7916C579.658 49.178 582.094 44.4196 591.305 34.4495C597.351 27.8985 598.721 23.3804 598.881 15.3259C598.988 10.0319 599.592 8.16403 602.651 6.22794C606.421 3.83807 614.031 2.21771 628.007 1.02301C631.92 0.679565 635.458 0.342987 638.641 0H631.564L627.617 0.349792C613.213 1.58585 605.211 3.28885 601.121 5.87088C597.832 7.95822 597.21 9.89429 597.102 15.3259C596.942 23.2982 595.609 27.7545 589.634 34.216C580.174 44.4678 577.703 49.288 581.046 51.1763C582.717 52.1239 585.669 52.3506 590.203 52.0553C592.474 51.8904 594.718 51.6748 596.924 51.4098L600.783 50.9565L602.829 50.7094L604.962 50.4554C608.694 50.0477 612.324 49.5121 615.809 48.8555C618.53 48.3059 620.29 47.7498 622.228 46.8917L623.598 46.2598L625.073 45.5594C626.389 44.9416 627.563 44.4264 628.95 43.8632C633.705 41.9893 638.856 40.2714 644.35 38.7273C667.341 32.0664 670.791 31.1261 678.953 29.588C688.111 27.8572 697.127 27.1227 709.609 27.1227C738.131 27.1227 753.904 23.8129 779.635 11.8926C787.103 8.43201 787.726 6.27567 781.733 5.14273C777.288 4.30505 771.171 4.09924 754.225 3.9548C737.936 3.81763 730.841 3.69406 721.506 3.24753C710.231 2.70514 700.522 1.79205 692.183 0.370667L690.031 0H690.014ZM875 222.847V221.453C869.736 221.79 863.975 222.078 857.823 222.332C850.532 222.634 843.153 222.854 836.111 223.005C833.639 223.06 831.398 223.101 823.148 222.765C819.697 222.442 815.786 222.126 811.518 221.831C791.496 220.451 770.798 220.004 751.451 221.048C740.399 221.591 729.633 222.791 719.531 224.605C707.624 226.814 696.689 229.734 687.132 233.257C680.731 235.577 677.353 237.054 667.946 241.38C661.224 244.47 658.059 245.74 654.609 246.543C652.707 246.983 650.946 247.196 649.168 247.196C646.056 247.196 646.074 247.196 632.755 246.681C626.177 246.433 621.552 246.289 616.823 246.214C595.307 245.871 581.97 247.326 578.129 251.783C568.704 262.701 556.613 269.56 532.713 274.751C502.733 281.254 476.682 292.412 476.682 299.381C476.682 307.869 473.198 313.115 461.034 319.576C452.286 324.218 449.298 326.099 447.769 328.139C446.631 329.663 446.453 330.748 446.453 334.401C446.453 335.678 444.978 336.825 441.795 338.226C440.087 338.967 432.69 341.735 431.837 342.071C421.434 346.218 416.223 350.297 416.223 356.374C416.223 358.056 416.295 359.491 416.437 361.401C416.846 366.557 416.739 367.491 415.192 369.139C413.237 371.22 409.805 372.936 395.33 379.267C382.776 384.76 379.468 386.628 366.043 394.971C364.443 395.96 363.144 396.749 361.829 397.505C357.879 399.815 353.417 401.989 348.492 404C341.593 406.829 334.533 409.507 327.332 411.993H332.63C339.001 409.729 345.158 407.377 351.088 404.941C356.423 402.758 360.602 400.684 364.78 398.267C366.132 397.498 367.448 396.701 369.048 395.692C382.384 387.418 385.621 385.591 397.998 380.173C412.845 373.678 416.348 371.927 418.536 369.606C420.314 367.724 420.42 366.729 419.993 361.359C419.852 359.464 419.78 358.043 419.78 356.374C419.78 350.695 424.581 346.932 434.397 343.032C435.162 342.73 442.648 339.928 444.462 339.132C448.178 337.505 450.01 336.07 450.01 334.401C450.01 330.899 450.188 329.869 451.183 328.523C452.57 326.69 455.397 324.891 463.898 320.387C476.576 313.657 480.239 308.13 480.239 299.381C480.239 293.051 505.489 282.243 534.456 275.946C559.244 270.563 571.835 263.422 581.508 252.222C584.655 248.576 596.64 247.271 616.68 247.587C621.303 247.656 625.909 247.8 632.4 248.054C645.95 248.569 645.879 248.569 649.168 248.569C651.622 248.569 654.023 248.281 656.441 247.718C660.353 246.805 663.678 245.479 670.667 242.266C679.984 237.974 683.327 236.525 689.569 234.252C698.858 230.828 709.485 227.989 721.061 225.841C730.831 224.089 741.244 222.931 751.93 222.408C770.887 221.385 791.211 221.824 810.878 223.183C815.093 223.479 818.933 223.788 822.33 224.097C823.503 224.206 824.552 224.303 829.549 224.508C839.124 224.361 848.684 224.093 858.213 223.705C864.206 223.451 869.825 223.17 875 222.847ZM875 213.646V212.925L874.502 213.007C861.77 215.115 853.466 215.953 841.214 215.953C834.866 215.953 832.448 215.905 813.385 215.431C791.975 214.902 778.461 214.745 763.062 215.053C742.613 215.452 723.764 216.702 705.875 219.043C699.118 219.935 692.539 220.966 686.137 222.167C673.441 224.543 664.106 226.857 656.619 229.322C653.781 230.261 651.073 231.258 648.51 232.309C647.799 232.604 643.532 234.369 642.376 234.829C632.418 238.757 621.89 239.986 590.487 239.986C556.986 239.986 548.22 241.977 540.271 250.849C539.613 251.597 539.079 252.167 538.529 252.751C537.166 254.186 535.561 255.585 533.727 256.94C529.104 260.338 522.667 263.559 513.42 266.855C464.288 284.364 450.898 292.364 450.898 305.562C450.898 311.247 447.431 315.545 439.696 320.668C437.865 321.89 424.012 330.158 419.655 333.138C416.829 335.081 414.268 337.024 411.849 339.064C405.448 344.502 403.937 348.656 403.314 357.329C402.958 362.499 402.443 364.676 400.505 367.12C398.015 370.244 393.392 372.655 385.515 374.625C379.45 376.136 372.924 379.329 364.07 384.692C362.238 385.797 360.424 386.937 357.845 388.571C347.443 395.115 345.167 396.509 340.828 398.741C333.715 402.407 325.944 405.127 314.564 408.134C309.463 409.471 304.275 410.758 299.004 411.993H302.383C308.02 410.64 311.95 409.659 315.577 408.697C327.1 405.662 334.995 402.888 342.251 399.153C346.625 396.894 348.919 395.5 359.339 388.928C361.385 387.633 363.458 386.344 365.562 385.063C374.276 379.775 380.713 376.644 386.474 375.202C394.707 373.142 399.615 370.602 402.212 367.319C404.203 364.793 404.736 362.581 405.11 357.342C405.715 348.759 407.209 344.68 413.467 339.352C415.825 337.35 418.406 335.39 421.203 333.474C425.523 330.522 439.376 322.254 441.243 321.011C449.12 315.793 452.677 311.378 452.677 305.562C452.677 292.604 465.836 284.756 514.629 267.363C524.019 264.012 530.58 260.723 535.292 257.269C537.159 255.896 538.706 254.523 540.183 252.991C540.751 252.401 541.285 251.824 543.507 249.304C546.637 245.816 549.286 244.195 554.835 242.932C561.556 241.4 572.51 240.673 590.487 240.673C622.317 240.673 633.289 239.388 643.638 235.317C644.829 234.843 649.079 233.071 649.791 232.783C652.314 231.749 654.98 230.768 657.775 229.844C665.137 227.42 674.348 225.134 686.902 222.785C693.243 221.599 699.77 220.567 706.444 219.695C724.173 217.374 742.862 216.138 763.168 215.74C778.461 215.438 791.922 215.589 813.261 216.118C832.394 216.592 834.812 216.64 841.214 216.64C852.505 216.64 860.543 215.939 875 213.653V213.646ZM875 230.867V230.18C866.589 230.153 858.302 230.222 848.291 230.373C836.893 230.551 827.327 230.098 804.956 228.635L801.649 228.422C779.332 226.967 767.241 226.528 754.58 227.07C738.132 227.777 724.92 230.332 714.269 235.31C681.905 250.444 660.602 255.779 634.942 255.779C630.319 255.779 626.389 255.573 620.415 255.106C611.897 254.44 610.314 254.351 606.954 254.44C602.402 254.577 598.596 255.312 595.004 256.885C590.825 258.718 586.825 261.725 582.539 266.305C576.315 272.98 566.215 276.962 544.183 282.991L539.737 284.214C528.482 287.289 522.614 289.089 517.012 291.375C509.775 294.335 504.974 297.541 502.484 301.359C496.581 310.492 492.757 315.346 488.899 318.759C487.488 320.004 485.885 321.214 484.098 322.384C482.942 323.14 482.249 323.586 479.475 325.296C476.487 327.15 475.776 328.88 475.42 333.11C475.1 336.845 474.655 338.535 472.913 340.643C470.82 343.171 466.999 345.434 461.852 347.194C452.428 350.537 448.321 354.081 446.026 359.409C445.706 360.144 445.493 360.7 444.995 362.06C443.27 366.798 441.99 368.885 438.558 371.316C434.201 374.406 430.663 375.978 403.563 387.425L398.496 389.581C383.007 396.207 373.903 400.65 369.191 404.289C365.421 407.207 360.851 409.507 353.898 411.993H356.476C362.825 409.645 367.145 407.399 370.791 404.591C375.397 401.034 384.43 396.619 399.811 390.034L404.879 387.892C432.174 376.356 435.642 374.811 440.123 371.645C443.679 369.118 445.013 366.976 446.756 362.156C447.254 360.803 447.466 360.247 447.769 359.519C450.01 354.328 453.957 350.922 463.062 347.701C468.438 345.862 472.43 343.497 474.62 340.856C476.398 338.658 476.879 336.928 477.198 333.131C477.554 329.024 478.212 327.37 480.986 325.653C482.577 324.691 484.123 323.718 485.627 322.735C487.447 321.54 489.08 320.304 490.517 319.034C494.429 315.573 498.288 310.691 504.209 301.524C508.548 294.836 517.812 291.046 540.769 284.77L545.215 283.554C567.513 277.443 577.827 273.378 584.21 266.539C588.407 262.027 592.336 259.089 596.338 257.338C599.646 255.896 602.989 255.243 607.078 255.127C610.208 255.037 611.755 255.127 620.06 255.779C626.14 256.26 630.195 256.466 634.942 256.466C661.242 256.466 682.955 251.021 715.655 235.742C725.969 230.915 738.772 228.436 754.775 227.75C767.223 227.214 779.191 227.654 801.365 229.096L804.654 229.315C827.148 230.791 836.787 231.238 848.363 231.059C858.267 230.908 866.5 230.84 875 230.867ZM875 65.8499V64.4494C868.207 64.9164 859.352 65.2321 846.585 65.5547C841.054 65.6923 839.364 65.74 836.627 65.8227C805.436 66.7153 788.366 68.5968 777.59 73.7191C770.887 76.9121 761.728 78.6769 749.139 79.6722C744.657 80.0225 742.257 80.1533 732.832 80.5858C723.052 81.0391 718.5 81.3821 714.41 82.1239C708.916 83.1196 706.071 84.7468 706.071 87.198C706.071 97.0037 722.288 113.621 741.991 124.003C753.282 129.949 765.676 138.601 772.416 145.797C780.791 154.745 780.258 160.828 769.339 162.792C762.867 163.959 762.031 164.111 759.079 164.612C747.218 166.624 737.385 167.832 727.96 168.217C724.102 168.375 720.438 168.382 716.935 168.23C712.046 168.011 708.845 167.255 703.865 165.429L701.429 164.523C699.863 163.933 698.206 163.38 696.469 162.868C694.177 162.223 691.757 161.649 689.231 161.151L685.426 160.375C679.913 159.263 677.246 158.535 675.539 157.546C669.316 153.934 665.759 147.384 663.394 137.942C662.884 135.876 662.463 133.806 662.131 131.735L661.829 130.238C660.531 123.667 659.055 119.855 656.138 117.15C645.736 107.509 609.158 93.3851 590.487 93.3851C580.992 93.3851 573.541 94.5798 565.361 97.1409C561.022 98.5005 544.539 104.777 541.285 105.923C532.447 109.027 524.32 112.9 515.216 118.063C511.838 119.986 498.146 128.212 494.784 130.073C491.883 131.624 488.653 133.08 485.129 134.426C482.461 135.477 472.451 139.206 472.148 139.315C459.167 144.246 451.593 148.036 446.578 152.87C444.195 155.177 441.617 158.452 437.011 164.852C435.063 167.548 433.119 170.244 431.179 172.941C429.068 175.85 426.875 178.75 424.599 181.641C413.503 195.649 403.119 204.987 391.809 209.65C377.228 215.651 367.199 217.738 345.54 220.451C334.48 221.837 329.465 222.572 322.921 223.932C291.43 230.482 252.914 243.646 242.102 253.802C231.735 263.517 221.226 267.109 209.952 267.109C204.814 267.109 195.016 268.984 185.537 271.799C174.513 275.067 165.337 279.111 160.322 283.3C150.063 291.883 142.381 306.303 142.381 315.861C142.381 319.514 139.713 322.611 133.685 327.136C125.31 333.453 124.599 334.072 124.599 336.461C124.599 343.616 120.065 358.475 113.983 367.882L112.24 370.547L110.657 372.929C109.484 374.715 108.737 375.903 108.115 377.001C106.586 379.679 105.928 381.643 106.034 383.579C106.141 385.461 106.959 387.335 108.665 389.533C111.102 392.664 107.065 398.947 98.5659 405.236C95.3966 407.606 91.7078 409.866 87.5407 411.993H91.8084C106.283 404.378 116.099 394.305 112.08 389.134C110.582 387.327 109.744 385.448 109.59 383.552C109.501 381.746 110.124 379.871 111.582 377.296C112.834 375.151 114.198 373.015 115.672 370.89L117.432 368.212C123.585 358.695 128.155 343.726 128.155 336.461C128.155 334.408 128.867 333.776 136.85 327.761C143.092 323.058 145.937 319.789 145.937 315.861C145.937 306.488 153.512 292.275 163.541 283.877C168.289 279.908 177.092 276.035 187.689 272.891C196.616 270.247 205.827 268.482 209.952 268.482C222.879 268.482 234.527 264.5 245.374 254.323C255.83 244.525 293.759 231.554 324.593 225.14C330.905 223.836 335.76 223.115 346.642 221.755C368.817 218.974 379.344 216.791 394.405 210.583C406.213 205.722 416.758 196.253 427.996 182.039C430.276 179.142 432.476 176.235 434.593 173.319C436.565 170.621 438.509 167.92 440.425 165.216C445.013 158.871 447.555 155.624 449.885 153.378C454.668 148.757 461.977 145.104 474.638 140.297C474.904 140.194 484.951 136.452 487.654 135.388C491.322 133.987 494.683 132.471 497.701 130.856C501.115 128.974 514.825 120.728 518.15 118.839C527.113 113.758 535.079 109.954 543.667 106.939C547.047 105.758 563.423 99.5235 567.602 98.2121C575.177 95.8294 581.882 94.7583 590.487 94.7583C607.38 94.7583 642.945 108.492 652.867 117.679C655.588 120.199 657.028 123.927 658.29 130.348C658.49 131.341 658.679 132.334 658.86 133.328C659.269 135.552 659.518 136.809 659.838 138.086C662.274 147.754 665.884 154.443 672.587 158.308C674.721 159.558 677.762 160.382 683.772 161.604L687.56 162.366C689.923 162.833 692.188 163.37 694.334 163.973C695.81 164.399 697.179 164.866 698.976 165.525C699.402 165.683 701.038 166.28 701.412 166.431C706.907 168.443 710.712 169.343 716.527 169.597C720.297 169.762 724.227 169.755 728.334 169.59C738.203 169.185 748.338 167.942 760.519 165.875C763.489 165.367 764.342 165.216 770.833 164.049C784.116 161.652 784.703 154.895 775.759 145.337C768.895 138.01 756.341 129.249 744.854 123.193C725.559 113.037 709.627 96.6948 709.627 87.2053C709.627 83.7719 714.997 82.8103 733.259 81.959C738.824 81.7498 744.361 81.4379 749.85 81.0251C763.187 79.9748 773.037 78.0723 780.364 74.5913C790.286 69.8738 806.646 68.0681 836.911 67.1959C839.613 67.1205 841.303 67.0724 846.815 66.9352C859.28 66.619 868.136 66.3101 875 65.8568V65.8499ZM875 71.3778V70.6774C872.493 70.8764 869.771 71.0753 866.837 71.2952L856.844 72.0161C833.195 73.7328 821.423 74.9002 814.078 76.6032C809.029 77.7702 804.299 79.1299 794.465 82.1307C776.043 87.7681 768.592 89.6015 761.195 89.6015L758.19 89.5879C755.024 89.5738 753.389 89.5738 751.486 89.6015C742.506 89.7455 736.905 90.6109 734.771 92.7877C732.104 95.4792 735.554 99.9219 746.205 106.603C756.661 113.167 765.231 118.64 774.051 124.394C775.438 125.294 789.006 134.193 792.633 136.527C794.925 138.002 797.237 139.471 799.568 140.936C814.684 150.425 808.548 167.674 785.645 172.728C774.478 175.2 770.495 175.846 754.847 178.07C753.013 178.326 751.193 178.596 749.388 178.881C744.624 179.628 740.072 180.562 735.803 181.668C710.943 188.075 689.391 191.913 670.507 191.913C663.998 191.913 658.735 192.428 644.101 194.22C641.184 194.578 639.37 194.79 637.467 195.01C615.721 197.509 603.468 197.097 594.791 192.064C591.196 190.014 588.894 187.667 588.07 185.212C586.416 180.267 590.149 175.262 598.525 168.794C599.912 167.729 604.642 164.234 605.514 163.575C606.783 162.608 608.148 161.659 609.604 160.732L614.333 157.711C626.638 149.732 630.657 143.703 625.145 135.182C623.651 132.902 622.655 130.897 620.45 126.186C616.2 117.089 613.782 113.346 608.963 110.167C602.437 105.889 592.923 105.044 579.356 108.189C567.463 110.954 556.519 114.285 546.779 118.105C542.063 119.945 537.519 121.851 533.159 123.818C533.247 123.769 523.734 128.047 521.12 129.187C517.576 130.751 513.819 132.241 509.864 133.65C494.82 138.938 486.107 142.426 476.842 147.438C464.217 154.264 454.864 162.133 449.138 171.595C433.775 197.022 426.555 206.615 417.255 211.991C407.066 217.896 373.209 226.617 319.792 237.287C301.832 240.872 287.073 245.713 274.075 251.796C266.535 255.319 261.183 258.361 252.327 263.847C244.112 268.942 241.409 270.453 237.817 271.661C235.18 272.484 232.266 273.165 229.157 273.687C226.845 274.106 217.652 275.658 217.119 275.747C211.784 276.681 207.516 277.505 203.373 278.459C183.866 282.943 171.365 289.466 166.387 300.02C162.297 308.761 161.585 313.65 162.297 320.4C162.528 322.632 162.581 323.236 162.546 324.246C162.421 327.782 160.696 330.913 155.788 335.651C141.029 349.892 134.378 362.259 134.378 376.294C134.378 378.388 134.646 380.434 135.233 383.49L135.517 384.925C137.223 393.474 137.223 397.34 134.397 402.325C132.463 405.722 129.195 408.985 124.705 412H126.75C131.078 409.019 134.242 405.807 136.14 402.469C139.002 397.402 139.002 393.488 137.295 384.87L137.011 383.442C136.424 380.4 136.157 378.368 136.157 376.294C136.157 362.355 142.772 350.064 157.424 335.912C162.403 331.098 164.181 327.878 164.324 324.259C164.359 323.229 164.306 322.618 164.075 320.373C163.364 313.671 164.057 308.837 168.165 300.137C173.019 289.796 185.199 283.437 204.28 279.05C208.663 278.055 213.193 277.161 217.847 276.372C218.345 276.289 227.574 274.731 229.921 274.305C233.181 273.758 236.231 273.041 238.991 272.177C242.778 270.899 245.498 269.381 253.838 264.211C262.658 258.752 267.975 255.731 275.443 252.236C288.3 246.221 302.881 241.435 320.61 237.892C374.312 227.173 408.311 218.418 418.748 212.376C428.208 206.896 435.446 197.29 450.881 171.746C456.536 162.373 465.8 154.593 478.301 147.837C487.476 142.879 496.1 139.411 511.073 134.159C515.071 132.734 518.87 131.228 522.454 129.647C525.085 128.5 534.599 124.216 534.492 124.264C539.542 122.019 543.667 120.281 548.042 118.592C557.682 114.817 568.513 111.525 580.28 108.794C593.012 105.841 601.424 106.582 607.417 110.531C612.092 113.6 614.511 117.315 618.779 126.489C620.048 129.466 621.59 132.425 623.402 135.36C628.79 143.676 624.896 149.533 612.804 157.374L608.092 160.396C606.313 161.535 605.016 162.428 603.913 163.28C603.059 163.932 598.329 167.427 596.942 168.498C588.408 175.083 584.602 180.199 586.308 185.314C587.166 187.872 589.558 190.318 593.297 192.456C602.561 197.825 615.56 198.258 637.984 195.683C639.886 195.463 641.717 195.243 644.634 194.886C659.072 193.122 664.265 192.614 670.507 192.614C689.854 192.614 711.654 188.727 736.798 182.259C740.967 181.177 745.412 180.264 750.063 179.533C751.664 179.279 753.3 179.031 755.47 178.722C771.207 176.491 775.261 175.831 786.534 173.339C810.397 168.073 816.674 150.384 801.08 140.586C798.749 139.126 796.444 137.662 794.162 136.191C790.535 133.856 776.967 124.957 775.581 124.058C766.743 118.304 758.19 112.824 747.734 106.26C737.332 99.7366 734.042 95.4792 736.424 93.0485C738.239 91.2083 743.217 90.4392 751.557 90.302C753.761 90.2713 755.968 90.2666 758.172 90.2884L761.195 90.302C769.196 90.302 776.718 88.455 796.528 82.3915C805.33 79.7 810.024 78.3608 815.003 77.2074C822.063 75.5662 833.781 74.4059 857.182 72.7029L867.175 71.982L875 71.3915V71.3778ZM875 78.5875V77.9011C874.396 77.9215 873.79 77.9283 873.222 77.9283C851.19 77.9283 813.528 83.7511 796.101 91.0847C793.867 92.0238 791.383 92.8687 788.686 93.6045C785.922 94.3518 783.008 95.0131 779.973 95.5823C778.693 95.8294 773.464 96.7839 772.22 97.0242C761.035 99.2351 760.591 101.721 772.914 108.677C774.514 109.597 780.31 112.845 780.702 113.071C783.903 114.87 786.392 116.278 788.811 117.672C794.839 121.126 799.835 124.106 804.28 126.949C819.697 136.789 827.877 144.451 827.877 150.371C827.877 161.947 817.297 172.831 801.56 177.562C797.933 178.654 792.367 179.76 784.436 181.036C781.022 181.586 777.216 182.163 772.344 182.87L759.31 184.751C737.189 187.951 725.418 190.08 717.931 192.689C702.301 198.114 653.916 202.9 624.274 202.9C620.894 202.9 618.743 203.016 609.568 203.6C605.656 203.854 603.166 203.998 600.553 204.108C590.755 204.541 583.731 204.252 578.52 202.955C565.895 199.796 562.107 189.428 570.021 176.546C572.628 172.078 576.382 167.722 581.223 163.541C585.437 159.99 598.543 151.792 597.938 152.211C604.411 147.596 605.317 143.305 600.25 135.182C587.553 114.891 584.922 114.287 552.577 124.703C515.358 136.679 470.459 157.059 470.459 163.417C470.459 170.229 449.157 200.387 438.54 208.585C430.129 215.081 400.878 225.285 371.235 233.868C369.546 234.356 332.826 243.138 318.601 247.052C295.253 253.472 278.502 259.563 269.647 265.557C262.231 270.563 251.367 274.593 236.341 278.466C231.183 279.791 204.955 285.69 200.048 287.207C196.616 288.265 194.34 289.267 193.13 290.311C182.016 299.972 177.055 306.942 177.055 317.228V337.141C177.055 339.922 176.345 342.195 172.61 352.886L171.597 355.839C169.284 362.65 168.165 367.216 168.165 370.787C168.165 371.927 168.182 372.813 168.236 374.927C168.574 387.706 167.382 394.532 161.069 405.731C159.878 407.859 157.904 409.94 155.184 411.986H157.176C159.706 410.048 161.599 407.995 162.812 405.875C169.143 394.614 170.352 387.747 170.014 374.921C169.96 372.806 169.943 371.927 169.943 370.787C169.943 367.251 171.063 362.712 173.357 355.928L174.388 352.975C178.14 342.236 178.833 339.97 178.833 337.141V317.228C178.833 307.058 183.724 300.171 194.767 290.586C195.833 289.666 197.931 288.739 201.168 287.743C205.934 286.26 232.091 280.382 237.319 279.036C252.558 275.108 263.636 271.002 271.176 265.9C279.889 260.015 296.479 253.98 319.614 247.615C333.786 243.714 370.542 234.932 372.302 234.417C402.176 225.765 431.552 215.52 440.141 208.887C450.863 200.606 472.237 170.339 472.237 163.417C472.237 157.361 516.959 137.056 553.714 125.225C584.868 115.2 586.096 115.481 598.525 135.347C603.504 143.312 602.615 147.431 596.391 151.888C597.013 151.428 583.891 159.654 579.605 163.259C575.195 166.974 571.443 171.224 568.278 176.381C560.223 189.517 564.099 200.174 577.56 203.532C583.197 204.939 590.576 205.234 600.748 204.795C603.8 204.655 606.841 204.483 609.87 204.28C618.904 203.703 621.055 203.586 624.274 203.586C654.325 203.586 703.101 198.759 719.105 193.197C726.378 190.67 738.042 188.555 759.933 185.39C761.587 185.15 770.495 183.879 772.966 183.515C777.874 182.801 781.68 182.224 785.13 181.675C793.185 180.37 798.875 179.238 802.645 178.105C818.88 173.229 829.655 162.14 829.655 150.371C829.655 144.287 821.387 136.535 805.792 126.592C801.329 123.742 796.332 120.755 790.286 117.287C787.602 115.747 784.899 114.211 782.177 112.68L774.371 108.285C762.582 101.639 762.956 99.6266 773.038 97.6424C774.247 97.4021 779.475 96.4473 780.773 96.2001C783.889 95.6151 786.879 94.9355 789.717 94.1678C792.509 93.3987 795.052 92.5406 797.417 91.5517C814.487 84.3625 851.67 78.6152 873.222 78.6152L875 78.5943V78.5875ZM875 58.2283V57.4729C870.518 58.2765 865.753 58.7021 860.774 58.7021C825.21 58.7021 786.018 62.0187 773.02 67.0446C763.809 70.5947 758.119 72.38 750.366 73.8427C740.746 75.6556 729.028 76.5551 713.184 76.5551C701.056 76.5551 692.574 77.3378 686.385 78.8691C681.585 80.0638 678.9 81.3412 673.014 84.9871C671.538 85.927 669.88 86.8222 668.053 87.665C661.011 90.8307 657.028 92.1831 651.32 92.9662C644.171 93.9479 635.245 93.6045 622.833 91.6888C617.901 90.8972 613.107 89.982 608.483 88.9492L605.46 88.3105C602.556 87.6637 599.59 87.0591 596.569 86.498C577.525 82.9547 562.961 83.9091 543.615 91.7715C529.522 97.4801 516.703 103.639 505.294 110.181C500.511 112.9 486.09 121.717 483.067 123.392C480.577 124.758 477.198 126.365 471.864 128.727C471.864 128.714 460.501 133.692 457.104 135.23C449.529 138.642 443.768 141.472 439.056 144.191C433.454 147.431 429.667 150.35 427.818 153.028C421.754 161.803 420.385 163.739 417.202 167.976C410.729 176.594 404.932 183.055 399.42 187.299C397.38 188.949 395.721 190.666 394.458 192.428C389.729 198.375 387.168 200.682 380.055 204.081C370.346 208.736 354.716 213.055 330.497 217.354C268.668 228.32 260.453 230.455 243.027 239.43C238.83 241.586 235.736 243.804 231.646 247.278L229.797 248.878C220.283 257.07 213.917 260.462 198.892 263.367C192.188 264.658 187.707 265.07 177.073 265.681C167.844 266.216 163.63 266.697 158.847 268.105C152.8 269.869 147.698 272.932 142.825 277.965C140.585 280.279 138.379 283.018 136.192 286.239C128.546 297.452 126.661 303.597 125.861 313.43C125.47 318.168 124.865 319.954 122.304 322.124C121.345 322.941 120.117 323.744 118.552 324.582C113.751 327.122 110.48 330.171 108.47 333.673C106.212 337.594 105.731 341.014 105.892 346.513L105.928 348.127C105.928 350.064 104.149 352.796 97.5875 361.654C92.1111 369.091 89.924 372.607 89.924 374.907C89.924 375.47 90.1544 376.211 90.6524 377.344L92.2527 380.785C95.2404 387.528 95.6143 392.76 91.8797 398.054C88.0035 403.534 79.8412 408.217 66.5581 411.986H69.4743C81.9929 408.23 89.7815 403.602 93.5688 398.233C97.3923 392.822 97.0183 387.5 93.9779 380.668L92.3776 377.235C91.9148 376.136 91.6844 375.422 91.6844 374.907C91.6844 372.71 93.8539 369.194 99.6506 361.352C105.928 352.872 107.688 350.16 107.688 348.127L107.652 346.507C107.474 341.055 107.955 337.683 110.177 333.824C112.151 330.412 115.334 327.439 119.957 324.98C121.497 324.176 122.82 323.313 123.905 322.405C126.572 320.125 127.23 318.285 127.622 313.451C128.404 303.666 130.289 297.569 137.881 286.418C139.72 283.642 141.916 280.903 144.461 278.212C149.262 273.289 154.17 270.322 159.896 268.647C164.377 267.342 168.36 266.875 177.322 266.36C188.133 265.742 192.757 265.31 199.656 263.978C207.761 262.452 214.758 260.173 220.017 257.344C224.035 255.202 226.649 253.259 231.397 249.153L233.247 247.566C237.283 244.126 240.342 241.95 244.432 239.842C261.644 230.984 269.629 228.903 331.208 217.972C355.676 213.639 371.538 209.251 381.442 204.513C388.733 201.025 391.346 198.656 396.148 192.634C397.381 190.905 399.006 189.221 401.003 187.601C406.551 183.316 412.382 176.82 418.891 168.169C422.598 163.197 426.137 158.207 429.507 153.2C431.303 150.611 435.02 147.754 440.514 144.575C446.018 141.476 451.998 138.506 458.42 135.683C461.835 134.145 473.179 129.173 473.179 129.173C477.192 127.455 480.973 125.659 484.507 123.79C487.565 122.101 501.986 113.27 506.734 110.565C518.089 104.052 530.849 97.9215 544.877 92.2381C563.69 84.596 577.418 83.7029 595.787 87.109C598.778 87.6659 601.715 88.2658 604.589 88.9079L607.612 89.5534C612.294 90.5968 617.146 91.5214 622.139 92.3207C634.942 94.2982 644.296 94.6552 651.889 93.6185C657.988 92.7809 662.149 91.3663 669.387 88.1115C671.111 87.3288 672.587 86.5184 675.913 84.472C680.269 81.7805 682.83 80.5653 687.329 79.4528C693.197 77.9901 701.358 77.2415 713.165 77.2415C729.259 77.2415 741.244 76.3216 751.113 74.4609C759.097 72.9569 764.929 71.1303 774.247 67.5257C786.819 62.671 825.637 59.3885 860.757 59.3885C865.735 59.3885 870.501 58.9906 874.982 58.2215L875 58.2283ZM875 252.236V251.542L864.687 250.787C835.772 248.672 818.097 248.006 798.431 248.906C788.117 249.386 781.217 249.434 771.224 249.283C763.311 249.16 761.124 249.166 757.657 249.414C750.01 249.949 742.488 251.776 728.601 256.548C710.463 262.776 701.198 264.966 674.987 270.144C670.293 271.071 667.04 271.744 663.785 272.465C660.975 273.083 658.344 273.714 655.783 274.367C647.425 276.523 640.81 279.194 625.891 285.93C608.821 293.634 601.246 296.573 591.875 298.379C589.385 298.86 586.895 299.272 584.05 299.704C581.659 300.055 579.259 300.396 576.848 300.727C559.173 303.22 552.079 306.228 545.179 316.452C542.868 319.878 536.057 330.562 535.684 331.133C528.393 342.25 522.596 348.525 513.278 354.122C506.574 358.146 506.592 358.132 483.884 373.115L481.181 374.9C470.513 381.924 463.043 386.642 456.376 390.508C452.832 392.574 449.095 394.589 445.173 396.55C442.183 398.015 439.172 399.473 436.14 400.924C429.039 404.347 422.927 408.058 417.914 411.993H419.904C424.769 408.214 430.671 404.648 437.509 401.357C437.26 401.48 444.337 398.088 446.578 396.976C450.53 395.004 454.297 392.977 457.87 390.899C464.555 387.019 472.024 382.295 482.71 375.257L485.432 373.472C508.103 358.503 508.085 358.516 514.772 354.499C524.232 348.821 530.082 342.49 537.408 331.304C537.782 330.734 544.592 320.05 546.886 316.638C550.62 311.123 554.888 307.608 560.223 305.342C564.526 303.515 568.865 302.595 577.471 301.38L584.708 300.35C587.412 299.95 590.064 299.501 592.657 299.004C602.348 297.136 609.994 294.17 627.243 286.383C642.038 279.702 648.617 277.045 656.761 274.95C659.343 274.289 661.982 273.661 664.674 273.069C667.893 272.348 671.129 271.689 675.788 270.769C702.124 265.564 711.494 263.339 729.774 257.063C743.466 252.373 750.722 250.609 757.976 250.093C761.266 249.86 763.382 249.86 771.136 249.977C781.235 250.128 788.205 250.073 798.644 249.599C818.062 248.707 835.612 249.366 864.349 251.474L875 252.243V252.236ZM875 199.645V198.203L867.354 199.157C861.485 199.872 855.298 200.483 848.861 200.998C826.223 202.817 806.841 203.243 775.421 203.243C765.267 203.243 758.083 201.966 758.083 200.407C758.083 198.388 768.059 195.628 788.454 192.902C838.866 186.18 862.552 177.363 862.552 163.424C862.552 148.029 860.151 143.332 844.61 130.176C841.966 127.952 838.973 125.792 835.648 123.708C832.448 121.682 820.409 114.932 818.365 113.518C814.167 110.634 813.545 108.711 816.603 106.844C817.315 106.411 818.222 105.978 819.36 105.539C821.775 104.597 824.066 103.61 826.223 102.579C827.694 101.886 829.141 101.186 830.562 100.478L831.985 99.7915C843.757 94.0783 852.204 92.0118 869.665 92.0118C871.479 92.0118 873.24 91.9978 875 91.9637V90.5904C873.24 90.6245 871.479 90.6382 869.665 90.6382C850.959 90.6382 841.605 92.9249 829.193 98.9398C828.24 99.3961 827.291 99.8537 826.348 100.313C825.21 100.883 824.339 101.295 823.486 101.707C821.394 102.704 819.174 103.66 816.835 104.57C815.537 105.079 814.452 105.587 813.599 106.109C809.687 108.492 810.487 110.915 815.252 114.191C817.404 115.667 829.478 122.451 832.608 124.422C835.86 126.461 838.788 128.576 841.374 130.753C856.684 143.71 858.996 148.215 858.996 163.424C858.996 176.642 836.413 185.047 787.281 191.618C765.498 194.529 754.526 197.564 754.526 200.414C754.526 203.023 763.525 204.623 775.421 204.623C807.073 204.623 826.633 204.191 849.571 202.357C856.151 201.828 862.428 201.203 868.42 200.469C870.732 200.194 872.919 199.92 875 199.652V199.645ZM875 97.1613L873.328 97.5048C865.651 99.1388 857.784 100.635 849.749 101.989C838.565 103.864 832.608 105.958 831.043 108.333C829.354 110.901 832.359 113.243 840.165 116.958C847.989 120.686 848.807 121.126 849.234 122.266C849.625 123.364 851.26 125.204 854.48 128.35C855.368 129.242 862.214 135.751 864.349 137.86C866.482 139.968 868.349 141.877 870.003 143.689C871.96 145.818 873.631 147.796 875 149.629V147.26C874.004 146.051 872.902 144.788 871.674 143.456C869.865 141.496 867.974 139.548 866.002 137.613C863.868 135.497 857.04 128.981 856.134 128.095C852.968 125.005 851.368 123.186 850.976 122.169C850.496 120.838 849.732 120.432 841.551 116.525C834.083 112.975 831.274 110.785 832.768 108.498C834.154 106.37 839.738 104.42 850.461 102.621C858.829 101.212 867.018 99.6488 875 97.9377V97.1613ZM875 174.678C872.762 177.536 868.96 180.175 863.851 182.417C861.432 183.481 857.698 184.696 852.665 186.083C850.069 186.805 847.153 187.56 843.703 188.425C841.402 189.003 839.09 189.575 836.768 190.142L835.434 190.464L832.821 191.103C829.878 191.81 826.996 192.555 824.179 193.335C821.636 194.056 820.214 194.584 819.805 195.01C819.147 195.71 820.658 196.033 823.432 196.033L827.184 196.04C839.472 196.074 847.313 195.985 856.222 195.559C862.62 195.287 868.918 194.739 875 193.925V193.19C868.863 194.039 862.489 194.603 856.009 194.873C847.189 195.298 839.418 195.388 827.202 195.353L823.432 195.347C821.707 195.347 821.44 195.292 821.476 195.243C821.725 194.996 822.988 194.523 825.21 193.891C828.004 193.118 830.862 192.38 833.781 191.68L836.378 191.048L837.711 190.719C840.037 190.148 842.361 189.575 844.682 189.002C848.149 188.137 851.083 187.368 853.715 186.64C858.836 185.225 862.677 183.982 865.184 182.863C869.341 181.048 872.661 178.972 875 176.724V174.678ZM875 48.5257V47.585C868.901 49.899 860.187 51.1486 848.326 51.1486C815.252 51.1486 817.475 51.1214 811.393 51.8491C807.961 52.2611 804.743 52.8793 799.604 54.0945C798.36 54.383 785.734 57.4729 780.293 58.7502C771.455 60.8376 750.953 66.3305 747.29 67.1341C736.478 69.5236 725.845 70.3753 704.292 70.3753C690.334 70.3753 679.042 72.0919 662.612 75.9369L654.378 77.887C651.823 78.492 649.213 79.0621 646.554 79.5968C640.953 80.7093 636.276 81.2999 631.831 81.3961C625.109 81.5334 618.867 80.5031 612.449 78.0314C603.344 74.5087 602.792 72.126 609.158 70.3408C614.351 68.8853 622.922 67.9514 638.446 66.8661C640.277 66.7289 646.626 66.3033 646.572 66.3033C654.876 65.7332 659.607 65.342 663.643 64.8615C671.503 63.9343 677.175 62.3208 685.443 59.1209L691.134 56.8823C702.497 52.5014 711.601 50.2356 725.808 49.0818L735.625 48.2854C742.915 47.688 748.143 47.2143 753.3 46.6855C777.732 44.1657 799.48 40.0592 832.821 31.1738C852.63 25.9002 866.376 23.5862 875 23.6757V22.9889C865.824 22.9067 851.795 25.2893 831.825 30.611C798.626 39.4482 777.056 43.5202 752.837 46.0195C747.716 46.5483 742.524 47.0153 735.251 47.6126L725.453 48.409C710.837 49.5969 701.447 51.9318 689.889 56.4017C688.751 56.8342 684.91 58.3519 684.181 58.6335C676.108 61.7715 670.631 63.3165 663.127 64.2091C657.586 64.8116 651.957 65.2862 646.269 65.6305L638.143 66.1865C622.317 67.299 613.604 68.2466 608.11 69.7847C600.73 71.8444 601.388 74.7285 611.204 78.5121C617.96 81.1213 624.683 82.2338 631.937 82.0826C636.668 81.9795 641.557 81.3616 647.373 80.2078C650.067 79.6671 652.712 79.0898 655.303 78.4775L663.536 76.5274C679.718 72.737 690.743 71.0617 704.292 71.0617C726.129 71.0617 737.065 70.1827 748.179 67.7315C751.913 66.9075 772.451 61.4073 781.218 59.3408C786.659 58.0566 799.319 54.9667 800.529 54.6851C805.543 53.4972 808.656 52.8998 811.909 52.5082C817.742 51.8078 815.643 51.8354 848.326 51.8354C859.921 51.8354 868.669 50.668 875 48.5257ZM611.826 23.0988C611.826 24.2526 611.417 25.1862 609.496 28.8257L608.66 30.4597C605.869 36.1316 606.349 39.1942 612.804 40.4371C617.694 41.3847 623.224 40.1141 630.017 37.1755C632.558 36.0532 634.973 34.8896 637.254 33.6872C638.499 33.0417 643.638 30.3293 644.848 29.7115C647.336 28.4341 649.062 27.6719 650.235 27.3289C653.193 26.4652 656.497 25.795 660.016 25.3442C659.659 25.3924 684.288 22.5841 699.526 20.5649C713.486 18.7111 718.589 16.7473 714.802 14.5087C712.312 13.0601 707.262 11.9957 695.188 9.97699C686.973 8.61737 684.945 8.26031 682.03 7.64206C667.484 4.51807 639.53 4.9642 623.58 7.608C620.918 8.00168 618.553 8.64633 616.702 9.48358C614.851 10.3208 613.572 11.3238 612.982 12.4009C611.808 14.1794 611.648 15.7379 611.791 20.4895L611.826 23.0988ZM615.383 23.0988C615.383 22.3229 615.383 21.6638 615.347 20.4759C615.115 12.1879 616.36 10.2927 624.967 8.87131C640.028 6.37875 666.843 5.94629 680.305 8.83719C683.381 9.49634 685.426 9.85339 693.784 11.2403C704.986 13.1082 709.93 14.1517 711.814 15.2642C713.735 16.3903 710.392 17.6676 698.389 19.2603C685.278 20.9424 672.093 22.5381 658.842 24.0464C654.978 24.5436 651.349 25.2812 648.101 26.23C646.554 26.6766 644.723 27.5002 642.003 28.8806C640.758 29.5121 635.654 32.2245 634.409 32.8632C631.742 34.2501 629.484 35.3353 627.35 36.262C621.606 38.7545 617.214 39.7571 614.404 39.2147C610.102 38.3839 609.692 35.7332 612.146 30.7141L612.982 29.1001C614.956 25.3306 615.383 24.3898 615.383 23.0988ZM875 260.428C853.2 258.059 849.874 257.839 841.214 257.839C835.293 257.839 830.064 257.75 821.05 257.544C802.68 257.111 797.044 257.097 790.695 257.722C782.267 258.553 778.07 260.613 778.07 264.362V282.215C778.07 285.017 781.36 285.779 790.713 286.287C792.118 286.356 792.438 286.376 793.06 286.418C802.574 286.994 806.539 288.34 806.539 292.515C806.539 295.015 807.25 296.319 808.975 296.93C810.451 297.452 811.536 297.452 815.964 297.177C825.317 296.594 831.701 297.521 840.503 302.327C848.415 306.667 850.034 310.313 846.495 313.692C843.757 316.301 839.098 318.313 828.713 321.877L826.526 322.632L824.339 323.38C822.602 323.981 820.907 324.599 819.253 325.234C814.359 327.156 810.315 329.377 807.286 331.805C805.934 332.849 805.757 332.986 802.609 335.692C797.754 339.881 794.607 341.879 789.06 343.753C783.725 345.559 780.435 346.96 778.319 348.354C775.029 350.537 774.531 352.103 774.531 357.747C774.531 361.853 766.85 364.998 747.876 370.107L740.71 372.043C738.042 372.771 735.909 373.376 733.971 373.959C715.975 379.363 715.477 387.267 735.678 395.067C745.512 398.871 770.228 402.05 804.156 404.433C828.607 406.15 856.542 407.303 875 407.502V406.816C856.649 406.61 828.82 405.47 804.477 403.76C770.922 401.405 746.418 398.253 736.922 394.586C717.452 387.068 717.931 379.645 735.073 374.495C736.976 373.925 739.092 373.328 741.742 372.607L748.89 370.677C768.362 365.424 776.309 362.176 776.309 357.747C776.309 352.227 776.772 350.737 779.866 348.704C781.858 347.386 785.022 346.026 790.233 344.275C796.03 342.312 799.284 340.245 804.245 335.974C805.686 334.669 807.228 333.383 808.868 332.115C811.81 329.75 815.739 327.587 820.498 325.715C822.816 324.822 825.218 323.964 827.7 323.14L829.904 322.384C840.485 318.759 845.268 316.692 848.131 313.952C851.919 310.341 850.212 306.454 841.943 301.936C832.749 296.903 825.673 295.88 815.68 296.498C811.909 296.731 811.055 296.731 810.167 296.429C808.94 295.989 808.318 294.822 808.318 292.515C808.318 287.963 803.641 286.363 793.345 285.738L790.962 285.6C782.391 285.14 779.866 284.55 779.866 282.215V264.362C779.866 260.929 783.493 259.144 791.14 258.388C797.239 257.784 802.823 257.805 820.942 258.23C827.69 258.413 834.45 258.511 841.214 258.525C849.714 258.525 853.003 258.745 875 261.142V260.428ZM875 269.821C863.299 268.922 855.955 268.716 848.612 268.887C847.367 268.915 846.051 268.956 844.379 269.011L839.827 269.169C833.052 269.402 827.433 269.512 819.876 269.512C811.092 269.512 806.077 270.514 804.903 272.403C803.871 274.037 805.863 276.221 810.238 278.72C818.276 283.28 833.479 288.326 844.433 290.084C864.775 293.36 872.333 299.78 872.333 313.115C872.333 319.02 868.154 322.948 858.321 327.308C856.08 328.303 831.647 337.649 822.756 341.728C811.963 346.678 809.26 349.81 807.961 355.886C807.162 359.677 806.361 361.366 803.765 363.742C800.298 366.887 794.021 370.169 783.689 373.973C769.891 379.075 767.828 383.071 776.043 385.969C782.498 388.249 794.857 389.718 812.034 390.652C821.227 391.153 825.797 391.297 842.939 391.737C849.607 391.908 852.399 391.854 875 391.105V390.418C852.417 391.167 849.607 391.222 843.045 391.05C825.974 390.611 821.423 390.466 812.283 389.972C795.443 389.059 783.351 387.617 777.252 385.468C769.943 382.886 771.775 379.336 784.934 374.481C795.426 370.602 801.827 367.244 805.383 364.009C808.104 361.551 808.922 359.801 809.722 356.044C811.003 350.002 813.599 347.001 824.125 342.174C832.946 338.123 857.377 328.784 859.672 327.754C869.771 323.277 874.11 319.192 874.11 313.115C874.11 299.533 866.251 292.858 845.126 289.453C834.51 287.743 819.556 282.785 811.714 278.329C807.588 275.981 805.757 273.962 806.628 272.561C807.571 271.05 811.82 270.199 819.876 270.199C827.486 270.199 833.159 270.089 839.987 269.855L844.539 269.698C846.193 269.636 847.473 269.601 848.718 269.567C855.973 269.402 863.264 269.608 875 270.522V269.821ZM875 347.928C869.203 349.658 854.035 354.06 849.571 355.413C837.16 359.176 827.557 364.374 824.783 368.734C821.743 373.547 827.362 376.63 841.214 376.63C848.363 376.63 850.39 376.603 875 376.122V375.436C850.372 375.916 848.326 375.944 841.214 375.944C828.553 375.944 823.735 373.293 826.526 368.899C829.193 364.703 838.565 359.629 850.656 355.955C854.853 354.678 868.563 350.702 875 348.793V347.928ZM272.26 341.158C277.08 343.52 281.329 345.964 286.042 349.013C287.179 349.741 294.755 354.795 296.888 356.12C309.336 363.859 320.628 366.42 341.93 364.6C353.525 363.605 361.669 361.49 367.608 358.153C372.285 355.522 375.183 352.611 379.273 347.111C385.407 338.892 386.368 337.718 390.439 334.188C392.573 332.332 395.058 330.54 397.873 328.825C410.444 321.197 411.565 315.71 403.705 309.626C400.558 307.182 384.145 297.816 384.127 297.816C382.216 296.647 380.396 295.456 378.668 294.246C362.966 283.231 335.707 270.714 322.033 270.542C315.88 270.467 310.35 271.909 303.788 274.854C302.188 275.562 300.569 276.351 298.542 277.381C297.564 277.876 293.991 279.702 293.208 280.087C287.162 283.156 282.912 285.017 278.182 286.486C253.607 294.122 227.183 304.717 220.781 310.08C210.931 318.361 210.522 323.703 220.995 328.874C225.512 331.105 232.625 332.753 244.734 334.765C245.89 334.964 254.425 336.344 256.719 336.743C263.209 337.855 267.033 338.734 269.06 339.654C270.127 340.148 271.193 340.649 272.26 341.165V341.158ZM271.762 338.761C269.291 337.642 265.112 336.681 258.16 335.486C255.848 335.088 247.277 333.701 246.139 333.508C234.58 331.579 227.823 330.02 223.804 328.029C214.291 323.339 214.647 318.519 224.018 310.657C230.1 305.541 256.239 295.07 280.423 287.557C285.437 285.999 289.847 284.069 296.053 280.917L301.352 278.212C302.998 277.372 304.705 276.549 306.473 275.747C312.394 273.09 317.142 271.854 321.926 271.915C333.733 272.06 360.548 284.371 375.538 294.905C377.263 296.113 379.095 297.308 381.104 298.544C381.247 298.626 397.5 307.889 400.522 310.238C407.813 315.882 406.782 320.854 394.867 328.091C391.964 329.862 389.403 331.715 387.204 333.632C383.025 337.237 382.047 338.439 375.858 346.733C371.876 352.089 369.066 354.905 364.655 357.377C359.25 360.425 351.888 362.341 341.148 363.254C321.553 364.93 311.63 362.684 299.894 355.392C297.795 354.087 290.256 349.054 289.082 348.306C284.299 345.216 279.978 342.723 275.034 340.313C273.968 339.784 272.883 339.269 271.762 338.761ZM751.059 265.736C728.298 265.736 721.292 267.411 698.122 278.425C694.679 280.067 691.586 281.815 688.875 283.65C686.208 285.436 683.861 287.31 681.443 289.487C680.5 290.338 679.575 291.19 678.419 292.302L675.628 294.994C668.818 301.448 663.714 304.429 654.2 306.406C650.253 307.23 646.377 307.923 642.055 308.624C639.792 308.989 637.516 309.341 635.228 309.681L633.911 309.888L631.35 310.272C617.089 312.469 609.87 314.426 602.01 318.992C599.91 320.208 597.53 321.348 594.898 322.398C592.5 323.347 589.953 324.237 587.269 325.063C586.665 325.248 581.579 326.813 580.191 327.26C572.812 329.649 569.7 331.73 569.7 335.163C569.7 337.278 568.58 339.022 565.966 341.735C562.375 345.456 561.805 346.218 562.054 347.887C562.286 349.624 564.295 351.217 568.438 352.817C570.75 353.71 578.805 356.628 580.494 357.294C589.385 360.769 592.799 363.776 592.799 369.496C592.847 372.263 593.114 375.03 593.599 377.791C595.147 388.729 594.613 392.856 589.67 395.149C579.409 399.894 584.815 403.142 603.468 403.142C622.548 403.142 639.032 397.237 639.032 390.096C639.032 386.8 641.575 384.383 645.559 383.682C649.969 382.913 656.495 384.149 664.354 387.789C684.501 397.127 701.269 395.507 701.269 382.542C701.105 378.874 704.419 375.308 710.588 372.517C715.406 370.265 721.008 368.535 731.606 365.754L735.606 364.71C743.733 362.581 748.232 361.27 752.322 359.684C763.365 355.42 765.907 353.298 764.573 350.723L764.164 350.036C763.749 349.44 763.529 348.827 763.507 348.21C763.507 347.111 764.698 346.555 774.567 342.593C782.871 339.263 786.624 337.052 786.624 334.476C786.624 333.563 788.668 332.101 792.758 330.048C794.501 329.176 796.563 328.208 799.337 326.958L806.965 323.58C809.274 322.554 811.539 321.515 813.759 320.462C827.202 314.055 831.896 309.73 825.352 306.585C821.529 304.731 817.333 303.742 812.443 303.405C808.816 303.151 805.988 303.227 799.462 303.605C789.06 304.202 784.489 304.051 778.834 302.348C773.535 300.755 773.109 300.315 774.585 299.759C775.047 299.588 777.483 298.832 778.035 298.654C782.48 297.136 784.383 295.324 783.049 292.474C781.555 289.315 775.741 288.649 765.107 289.233L762.334 289.398C755.825 289.81 753.567 289.865 752.019 289.569C750.49 289.267 750.348 288.265 752.731 285.978L753.246 285.47C763.098 276.008 764.075 274.992 765.107 272.128C766.601 267.988 762.262 265.736 751.059 265.736ZM751.059 267.109C759.95 267.109 762.795 268.578 761.587 271.943C760.608 274.628 759.63 275.671 749.938 284.955L749.405 285.47C746.454 288.333 746.667 290.07 750.437 290.799C752.98 291.286 755.345 291.224 762.884 290.757L765.605 290.592C774.568 290.098 778.532 290.551 779.546 292.714C780.648 295.07 779.243 296.408 775.67 297.624C775.261 297.761 772.717 298.544 772.113 298.777C768.628 300.082 769.891 301.4 776.647 303.433C783.298 305.424 788.686 305.609 799.978 304.957C811.98 304.271 816.693 304.6 822.579 307.443C827.557 309.839 823.378 313.692 811.003 319.597C809.046 320.524 806.948 321.485 804.28 322.68L796.634 326.065C793.824 327.329 791.726 328.31 789.931 329.21C785.379 331.503 783.067 333.151 783.067 334.476C783.067 336.564 779.689 338.562 772.006 341.638L767.756 343.328C766.174 343.973 764.982 344.474 763.969 344.955C761.319 346.198 759.95 347.221 759.95 348.21C759.95 348.917 760.182 349.453 760.697 350.338C760.981 350.819 761 350.826 761.07 350.998C762.137 353.03 760.093 354.74 749.814 358.709C745.902 360.219 741.546 361.496 733.615 363.577L729.614 364.621C718.749 367.47 712.953 369.263 707.849 371.638C701.15 374.676 697.546 378.553 697.713 382.542C697.713 394.126 685.248 395.328 667.075 386.91C658.326 382.858 650.342 381.334 644.082 382.433C638.534 383.408 635.477 386.326 635.477 390.096C635.477 396.447 620.645 401.769 603.468 401.769C587.571 401.769 584.281 399.791 592.39 396.028C598.223 393.323 598.774 389.176 597.156 377.715L597.049 377.015C596.569 373.52 596.355 371.529 596.355 369.496C596.355 363.398 592.55 360.048 583.019 356.326C581.276 355.639 573.186 352.714 570.945 351.842C567.407 350.476 565.788 349.192 565.61 347.811C565.397 346.418 565.931 345.71 569.291 342.215C572.048 339.366 573.239 337.477 573.239 335.163C573.239 332.19 575.835 330.467 582.486 328.31C583.802 327.878 588.887 326.326 589.51 326.127C592.3 325.267 594.948 324.34 597.44 323.353C600.224 322.243 602.742 321.039 604.962 319.755C612.378 315.456 619.028 313.643 632.667 311.549L635.209 311.158L636.525 310.966C638.828 310.612 641.129 310.255 643.424 309.894C647.669 309.215 651.824 308.454 655.872 307.615C666.328 305.445 671.823 302.245 678.917 295.509L681.727 292.817C682.866 291.718 683.772 290.867 684.696 290.036C686.826 288.084 689.248 286.18 691.952 284.337C694.568 282.564 697.553 280.876 700.879 279.29C723.461 268.565 729.561 267.109 751.077 267.109H751.059ZM609.23 358.585C611.951 360.686 612.822 363.076 612.253 365.919C611.897 367.656 611.15 369.29 609.604 371.961C607.487 375.642 607.149 376.308 606.865 377.681C606.456 379.59 607.167 380.991 609.355 382C611.683 383.085 614.191 383.346 616.858 382.865C619.313 382.412 619.952 382.144 625.874 379.398C631.084 376.974 634.462 375.944 638.481 375.944C651.462 375.944 656.299 376.83 666.257 381.32C672.125 383.971 678.419 385.392 683.363 384.946C689.142 384.431 692.29 381.54 692.29 376.287C692.29 371.357 700.487 367.566 718.394 362.533C719.639 362.19 728.298 359.814 730.61 359.141C734.124 358.181 737.398 357.096 740.39 355.9C742.132 355.172 743.413 354.465 744.213 353.772C746.454 351.815 747.005 350.304 747.307 347.022C747.788 341.762 749.886 339.558 759.933 336.735C763.791 335.651 767.045 334.6 769.891 333.522C774.496 331.747 778.494 329.75 781.787 327.583C781.928 327.479 792.793 320.242 797.488 317.42C801.792 314.838 801.116 312.991 796.119 311.776C792.509 310.897 788.045 310.471 777.714 309.805C768.681 309.228 765.125 308.933 761.835 308.39C757.746 307.724 756.074 306.873 756.714 305.63C758.919 301.373 759.186 299.485 757.07 298.091C754.58 296.463 748.855 295.941 737.99 296.292C734.504 296.401 732.886 295.577 732.583 293.71C732.352 292.172 732.939 290.345 734.575 286.885L734.789 286.411C737.367 280.938 737.847 279.05 736.087 277.676C733.544 275.678 726.715 276.578 714.375 280.581C702.763 284.344 695.152 287.86 690.316 291.403C686.813 293.971 685.603 295.482 683.025 299.753C679.967 304.758 676.784 306.894 666.47 309.393C658.024 311.426 633.36 316.768 629.412 317.729C619.33 320.194 613.231 322.398 609.247 325.317C606.794 327.102 604.233 328.558 598.453 331.613L596.658 332.561C586.487 337.951 582.468 341.007 582.468 344.701C582.468 347.599 584.887 349.157 590.95 350.97C591.715 351.204 594.898 352.117 595.698 352.343C597.636 352.927 599.219 353.442 600.73 354.026C604.21 355.349 607.085 356.891 609.23 358.585ZM610.83 358.283C608.341 356.361 605.442 354.85 601.993 353.531C600.393 352.934 598.774 352.398 596.783 351.808C595.965 351.568 592.782 350.654 592.035 350.427C586.38 348.732 584.246 347.365 584.246 344.701C584.246 341.206 588.159 338.246 598.081 332.966L599.876 332.018C605.726 328.935 608.305 327.466 610.812 325.632C614.636 322.845 620.504 320.716 630.373 318.313C634.267 317.358 658.912 312.023 667.395 309.97C678.189 307.367 681.585 305.074 684.732 299.903C687.311 295.694 688.466 294.225 691.88 291.718C696.611 288.258 704.079 284.818 715.531 281.103C727.018 277.374 732.761 276.619 734.486 277.978C735.98 279.146 735.5 281.055 733.046 286.287L732.815 286.768C731.161 290.283 730.557 292.137 730.823 293.751C731.178 295.955 733.455 297.129 738.132 296.978C748.374 296.649 753.495 297.116 755.522 298.441C757.336 299.629 757.087 301.421 754.972 305.493C754.136 307.107 756.358 308.24 761.141 309.022C764.609 309.592 768.254 309.894 776.79 310.444L777.43 310.485C787.477 311.13 791.851 311.549 795.177 312.352C799.266 313.355 799.8 314.77 795.994 317.049C791.264 319.892 780.399 327.136 780.257 327.219C777.039 329.339 773.131 331.291 768.628 333.028C765.588 334.173 762.331 335.229 758.883 336.186C748.303 339.153 746.027 341.549 745.547 346.995C745.244 350.194 744.711 351.636 742.578 353.49C741.866 354.108 740.692 354.761 739.092 355.44C736.176 356.605 732.985 357.662 729.561 358.599C727.25 359.258 718.607 361.62 717.344 361.984C699.011 367.134 690.512 371.062 690.512 376.287C690.512 381.258 687.667 383.854 682.972 384.28C678.847 384.651 673.103 383.346 667.608 380.867C657.312 376.232 651.978 375.257 638.481 375.257C633.734 375.257 630.053 376.383 624.505 378.958C618.867 381.567 618.174 381.863 616.094 382.24C614.209 382.584 612.555 382.412 610.706 381.561C607.417 380.029 607.772 378.32 611.345 372.112C612.893 369.414 613.658 367.752 614.013 365.974C614.617 363.021 613.693 360.501 610.812 358.283H610.83ZM603.896 339.057C598.881 342.936 599.983 345.209 606.332 347.914C607.22 348.299 610.724 349.7 611.434 349.988C618.352 352.872 621.589 355.529 621.589 359.807C621.589 367.614 624.096 369.42 635.974 370.862C637.45 371.041 644.154 371.789 645.968 372.002C650.644 372.552 654.912 373.128 659.482 373.856C668.675 375.319 674.276 375.669 677.691 375.037C680.554 374.509 681.567 373.595 682.652 371.35C683.416 369.757 683.594 369.427 684.163 368.706C685.194 367.436 686.653 366.406 688.894 365.548C690.672 364.861 692.681 364.161 695.401 363.275C696.664 362.863 701.626 361.277 702.763 360.899C717.95 355.955 724.724 352.364 724.724 347.447C724.724 344.866 727.001 342.675 731.837 340.176C734.273 338.912 750.17 332.197 755.06 329.725C758.93 327.778 762.424 325.724 765.516 323.58C770.032 320.434 771.242 318.532 769.482 317.413C768.059 316.507 765.801 316.28 759.701 316.081C758.627 316.052 757.554 316.015 756.483 315.971C748.072 315.6 744.284 314.433 744.284 311.055C744.284 306.173 742.097 304.978 734.664 304.374C726.467 303.714 722.75 302.932 717.469 299.876C712.756 297.15 707.831 296.917 702.852 298.832C699.296 300.205 696.629 302.012 690.636 306.626C684.768 311.165 682.1 312.943 678.758 314.248C675.266 315.617 671.402 316.836 667.235 317.887C664.568 318.56 661.829 319.144 658.113 319.865L650.467 321.32C647.212 321.945 644.474 322.501 641.611 323.113C623.26 327.054 615.329 330.233 603.913 339.057H603.896ZM642.482 323.717C645.31 323.106 648.031 322.556 651.266 321.931L658.912 320.482C662.109 319.878 665.214 319.204 668.212 318.464C672.477 317.385 676.429 316.133 680.002 314.728C683.559 313.355 686.244 311.556 692.218 306.935C698.086 302.403 700.754 300.617 704.114 299.313C708.276 297.713 711.885 297.885 715.975 300.26C721.559 303.488 725.684 304.353 734.291 305.047C740.87 305.582 742.506 306.482 742.506 311.055C742.506 314.831 747.076 316.253 756.287 316.651C757.176 316.692 757.746 316.713 759.559 316.768C765 316.94 766.974 317.145 767.953 317.77C769.268 318.594 768.183 320.304 763.951 323.25C760.901 325.363 757.455 327.387 753.638 329.306C748.836 331.744 732.921 338.466 730.396 339.771C725.364 342.373 722.946 344.701 722.946 347.447C722.946 352.096 716.42 355.55 701.607 360.377L694.264 362.746C691.976 363.482 689.77 364.254 687.649 365.06C685.205 366.022 683.426 367.205 682.474 368.5C681.87 369.256 681.674 369.599 680.891 371.226C679.913 373.252 679.077 374.021 676.926 374.419C674.099 374.941 668.924 374.612 660.157 373.225C655.681 372.513 651.117 371.885 646.483 371.343C644.651 371.13 637.948 370.382 636.508 370.203C625.482 368.864 623.367 367.347 623.367 359.807C623.367 355.344 619.935 352.522 612.733 349.521C612.022 349.219 608.519 347.832 607.647 347.454C601.779 344.948 600.801 342.977 605.496 339.359C616.752 330.659 624.434 327.583 642.482 323.717ZM663.697 362.073C675.166 360.027 690.832 350.551 690.832 343.712C690.832 340.052 685.532 338.521 676.855 338.83C670.667 339.05 662.789 340.272 657.988 341.528L653.863 342.572C652.222 342.98 650.621 343.41 649.062 343.863C640.526 346.376 635.814 349.254 635.814 353.215C635.814 359.436 652.743 364.03 663.697 362.073ZM662.95 361.455C653.223 363.186 637.592 358.949 637.592 353.215C637.592 349.508 642.002 346.809 650.146 344.413C651.569 344 652.992 343.609 654.841 343.142C654.841 343.142 658.165 342.318 658.984 342.098C663.554 340.904 671.165 339.723 677.015 339.51C684.715 339.235 689.053 340.492 689.053 343.712C689.053 350.283 673.796 359.519 662.95 361.448V361.455ZM699.829 313.616C700.149 315.044 701.269 316.665 703.03 317.654C705.644 319.109 709.432 319.164 713.788 317.475C722.946 313.946 721.506 308.652 711.387 308.652C703.101 308.652 699.225 310.808 699.829 313.616ZM701.607 313.554C701.074 311.11 704.275 309.338 711.387 309.338C719.531 309.338 720.741 313.822 712.543 316.995C708.916 318.388 706.444 318.354 704.506 317.269C702.941 316.397 701.892 314.88 701.607 313.561V313.554ZM299.822 333.872C304.001 337.058 314.475 345.731 316.592 347.187C319.116 349.029 322.518 350.672 326.62 352.027C329.54 352.969 332.63 353.83 335.867 354.603C342.588 356.251 349.488 354.63 356.548 350.345C362.167 346.932 367.75 341.982 374.009 335.273C377.103 331.95 385.888 321.794 386.812 320.785C390.956 316.26 386.99 310.588 376.392 303.522C372.355 300.824 367.502 298.029 361.206 294.637C358.343 293.106 348.777 288.113 347.248 287.289C343.546 285.399 340.161 283.42 337.112 281.364C332.488 278.054 325.305 278.308 315.542 281.48C308.643 283.726 307.238 284.344 286.504 293.909C282.051 295.989 277.463 298.024 272.741 300.013C270.077 301.13 267.313 302.211 264.454 303.254C254.799 306.743 252.914 309.983 257.484 313.534C259.44 315.072 262.551 316.644 267.299 318.635C269.736 319.652 279.249 323.401 280.991 324.115C289.723 327.686 295.572 330.611 299.84 333.865L299.822 333.872ZM301.423 333.557C297.066 330.226 291.127 327.253 282.29 323.641C280.512 322.92 271.016 319.178 268.616 318.168C263.974 316.225 260.969 314.694 259.066 313.225C254.869 309.963 256.577 307.045 265.663 303.749C268.552 302.697 271.346 301.607 274.038 300.48C278.128 298.777 282.254 296.937 287.855 294.355C308.483 284.838 309.905 284.214 316.68 282.009C325.713 279.07 331.617 278.864 335.547 281.693C337.68 283.225 340.863 285.058 345.807 287.695C347.354 288.519 356.903 293.511 359.766 295.042C365.174 297.885 370.213 300.829 374.862 303.865C385.212 310.773 389.053 316.273 385.141 320.551C384.216 321.568 375.414 331.723 372.338 335.04C366.114 341.7 360.584 346.617 355.054 349.974C348.456 353.984 342.428 355.399 336.809 354.026C333.647 353.269 330.629 352.427 327.776 351.506C323.832 350.202 320.562 348.623 318.138 346.85C316.075 345.422 305.602 336.77 301.423 333.557ZM315.737 306.894C315.079 309.029 315.507 310.808 316.982 312.661C318.156 314.138 318.636 314.543 323.686 318.594C327.758 321.856 330.55 324.355 333.573 327.651C338.854 333.405 344.652 335.424 350.929 333.715C356.156 332.286 361.455 328.194 367.253 321.465C372.266 315.662 371.43 310.835 365.651 306.75C361.117 303.557 354.093 301.03 343.78 298.407C335.938 296.415 329.199 296.532 324.113 298.517C319.756 300.22 316.876 303.234 315.756 306.894H315.737ZM317.516 306.976C318.582 303.453 321.356 300.569 325.375 298.997C329.821 297.26 335.636 297.157 342.802 298.983C352.902 301.545 359.712 303.996 364.087 307.086C369.617 311 370.435 315.621 365.581 321.245C359.891 327.83 354.698 331.847 349.897 333.151C345.007 334.483 340.205 332.808 335.244 327.418C332.186 324.094 329.376 321.581 325.286 318.299C320.29 314.289 319.827 313.891 318.69 312.462C317.258 310.687 316.856 308.811 317.516 306.969V306.976ZM697.856 139.048C706.355 139.048 711.299 138.052 713.735 136.006C715.601 134.433 715.922 132.881 715.869 128.597L715.85 127.374C715.85 121.064 702.248 115.701 688.288 115.701C674.792 115.701 669.6 122.98 678.616 129.256C681.372 131.165 682.065 132.147 683.505 135.14C684.981 138.189 687.542 139.048 697.856 139.048ZM697.856 138.361C688.431 138.361 686.582 137.743 685.266 135.01C683.79 131.954 683.043 130.918 680.18 128.926C671.716 123.042 676.446 116.388 688.288 116.388C701.269 116.388 714.072 121.442 714.072 127.374V128.604C714.144 132.765 713.823 134.275 712.117 135.717C709.982 137.503 705.715 138.361 697.856 138.361ZM488.294 161.247C485.965 163.794 483.494 167.221 480.203 172.302C479.048 174.074 473.019 183.653 471.223 186.42C462.457 199.872 455.397 208.084 447.485 212.671C429.791 222.923 387.239 237.988 362.487 242.767C354.485 244.312 351.142 245.96 351.373 248.04C351.479 248.906 352.173 249.833 353.506 251.007C354.433 251.832 355.441 252.643 356.529 253.437L357.65 254.303C361.811 257.585 363.767 260.057 363.767 262.989C363.767 267.933 369.226 269.863 377.833 268.722C385.052 267.761 393.676 264.658 399.206 261.101C408.062 255.402 429.969 253.033 458.901 253.033C465.284 253.033 470.067 252.092 473.766 250.3C476.576 248.94 478.39 247.416 481.164 244.483L481.822 243.783C484.934 240.453 486.747 238.99 489.752 237.823C498.822 234.328 502.466 229.212 502.466 223.849C502.466 222.902 504.103 222.154 507.979 221.11C508.708 220.911 511.446 220.203 511.855 220.1C518.826 218.26 522.027 216.715 522.027 214.236C522.027 208.853 523.681 206.862 534.367 199.295C539.382 195.738 540.733 193.252 540.911 189.228C540.911 189.05 540.911 188.906 540.947 188.597C541.054 185.287 541.48 183.708 543.329 181.38C545.094 179.294 547.209 177.255 549.66 175.275C551.438 173.786 558.569 168.045 558.32 168.251C564.9 162.902 568.953 159.105 571.781 155.273C578.093 146.752 575.764 142.515 564.543 136.445C561.254 134.673 556.667 134.578 550.994 135.875C546.637 136.871 541.943 138.553 535.043 141.423L532.127 142.646C525.726 145.337 524.818 145.722 522.294 146.697C518.168 148.29 516.07 148.839 508.726 150.46C502.751 151.785 499.639 152.774 496.172 154.765C493.433 156.345 490.873 158.432 488.294 161.247ZM489.966 161.48C492.491 158.714 494.998 156.674 497.648 155.15C500.937 153.261 503.854 152.334 509.615 151.057C517.084 149.409 519.288 148.832 523.538 147.184C526.098 146.203 527.023 145.811 533.443 143.106L536.342 141.89C543.134 139.075 547.74 137.413 551.901 136.466C556.862 135.333 560.437 135.408 563.103 136.843C574.022 142.748 576.226 146.772 570.074 155.088C567.282 158.864 563.245 162.641 556.719 167.956C556.968 167.75 549.82 173.49 548.042 174.987C545.561 176.993 543.423 179.06 541.64 181.174C539.702 183.584 539.276 185.218 539.151 188.59V189.215C538.973 193.142 537.675 195.518 532.803 198.965C521.991 206.628 520.249 208.716 520.249 214.236C520.249 216.427 517.404 217.807 510.859 219.531L506.948 220.547C502.626 221.714 500.688 222.606 500.688 223.849C500.688 229.047 497.132 233.998 488.508 237.342C485.235 238.599 483.351 240.116 480.15 243.55L479.492 244.25C473.926 250.155 469.409 252.346 458.901 252.346C429.382 252.346 406.977 254.77 397.677 260.75C392.342 264.184 384.038 267.171 377.263 268.07C369.919 269.045 365.545 267.5 365.545 262.989C365.545 259.933 363.518 257.365 359.25 254.001C352.724 248.837 353.311 249.345 353.151 248.013C352.973 246.241 355.853 244.82 363.287 243.385C388.306 238.551 431.107 223.403 448.979 213.055C457.051 208.379 464.128 200.119 472.949 186.585C474.762 183.817 480.772 174.239 481.928 172.467C485.2 167.406 487.672 164.001 489.966 161.48ZM497.132 173.037C497.132 174.465 496.776 175.784 495.905 178.015C494.535 181.6 494.305 182.575 495.016 183.824C496.012 185.555 499.195 186.427 505.134 186.427C512.336 186.427 518.097 184.868 523.112 181.881C526.845 179.656 529.389 177.397 534.492 172.165L534.67 171.979L536.199 170.414C538.262 168.327 540.68 166.795 545.854 164.007L546.868 163.458C557.324 157.835 561.147 154.291 561.147 147.631C561.147 144.211 557.538 142.907 551.154 143.682C546.157 144.28 539.488 146.141 531.362 149.038C528.926 149.904 526.384 150.851 523.716 151.888C518.132 154.065 504.85 159.613 504.512 159.75C503.676 160.066 502.929 160.389 502.271 160.711C497.452 163.033 496.794 164.673 497.061 170.448C497.114 171.581 497.132 172.254 497.132 173.037ZM498.91 173.037C498.91 172.247 498.893 171.575 498.839 170.434C498.59 164.818 499.195 163.293 503.658 161.137C504.28 160.835 504.974 160.533 505.756 160.231C506.13 160.094 519.431 154.532 524.996 152.369C527.467 151.404 529.993 150.461 532.572 149.54C540.52 146.711 547.01 144.898 551.687 144.335C556.808 143.717 559.369 144.644 559.369 147.631C559.369 154.126 555.688 157.546 545.428 163.053L544.414 163.602C539.151 166.438 536.662 168.011 534.527 170.167L532.998 171.746L532.821 171.918C527.77 177.102 525.263 179.333 521.618 181.51C516.906 184.312 511.66 185.74 505.134 185.74C499.995 185.74 497.559 185.074 496.776 183.68C496.118 182.547 496.332 181.586 497.666 178.118C498.554 175.852 498.91 174.506 498.91 173.037ZM418.287 250.265C427.959 248.974 430.308 248.906 440.976 249.592C453.531 250.402 470.459 248.645 470.459 245.822C470.46 245.477 470.502 245.131 470.583 244.785L470.654 244.346C470.974 242.382 470.957 241.03 470.353 239.581C468.467 235.083 461.213 232.433 446.453 232.433C421.736 232.433 411.44 233.902 399.633 238.015C397.571 238.679 395.336 239.259 392.965 239.746C391.134 240.151 383.843 241.655 384.056 241.613C369.581 244.662 363.553 246.907 365.562 250.025C366.097 250.828 366.932 251.535 368.39 252.483L369.884 253.437C370.991 254.113 371.943 254.826 372.729 255.566C373.209 256.047 373.298 256.802 373.191 258.828L373.173 259.322C373.084 261.492 373.316 262.604 374.347 263.325C375.93 264.431 378.9 264.149 383.06 262.543C385.317 261.67 387.546 260.786 389.746 259.892C407.707 252.614 411.796 251.137 418.287 250.265ZM417.717 249.62C410.782 250.54 406.746 251.995 388.449 259.418C385.834 260.482 383.789 261.293 381.815 262.062C378.348 263.394 376.694 263.552 375.894 262.989C375.094 262.426 374.862 261.361 374.951 259.336L374.97 258.842C375.076 256.685 375.005 255.916 374.365 255.312C373.636 254.584 372.764 253.959 371.395 253.08L369.919 252.133C368.758 251.43 367.876 250.664 367.305 249.86C365.581 247.196 371.164 245.108 384.909 242.217C384.679 242.266 391.987 240.748 393.836 240.343C396.317 239.832 398.654 239.222 400.807 238.523C412.312 234.534 422.145 233.119 446.453 233.119C460.306 233.119 466.849 235.509 468.592 239.691C469.179 241.071 469.197 242.382 468.876 244.298C468.836 244.58 468.794 244.861 468.752 245.143C468.699 245.431 468.681 245.644 468.681 245.822C468.681 248.02 452.855 249.668 441.261 248.912C430.308 248.212 427.675 248.288 417.717 249.62ZM439.803 243.261C440.728 243.66 443.181 244.978 443.235 245.012C446.026 246.358 449.12 246.413 454.544 245.019C464.573 242.451 460.039 238.956 446.453 238.956C439.678 238.956 436.371 239.306 435.748 240.377C435.286 241.188 436.282 241.75 439.803 243.261ZM442.434 242.341C440.034 241.311 439.145 240.81 439.234 240.673C439.287 240.556 441.421 240.329 446.453 240.329C456.891 240.329 459.274 242.162 452.588 243.879C448.57 244.909 447.538 244.889 446.009 244.154C446.062 244.174 443.519 242.815 442.453 242.341H442.434ZM210.931 395.397C208.974 396.907 207.978 397.917 206.734 399.434L206.574 399.626C204.981 401.713 202.867 403.734 200.261 405.662C196.562 408.526 196.918 410.022 201.755 410.441C205.312 410.743 208.885 410.579 224.338 409.583C248.557 408.024 270.82 403.293 288.887 395.046C295.342 392.094 296.693 389.958 293.225 388.352C290.434 387.061 285.099 386.223 274.59 385.186C272.545 384.98 264.223 384.204 262.214 384.005C256.683 383.474 251.214 382.853 245.818 382.144C233.691 380.496 226.649 380.064 222.809 380.702C219.555 381.231 218.826 382.13 218.452 384.548C218.292 385.571 218.203 385.983 217.955 386.587L217.368 387.926C217.154 388.42 217.011 388.764 216.851 389.079C216.496 389.835 216.176 390.398 215.785 390.94C214.913 392.108 213.651 393.289 210.931 395.397ZM212.531 395.699C215.269 393.563 216.602 392.348 217.492 391.133C217.901 390.556 218.239 389.972 218.612 389.203C219.026 388.334 219.399 387.461 219.733 386.587C219.964 386.058 220.07 385.632 220.231 384.582C220.551 382.433 221.138 381.719 223.52 381.327C226.792 380.792 233.513 381.19 245.214 382.79C250.661 383.506 256.184 384.134 261.769 384.671L274.146 385.852C284.282 386.855 289.403 387.651 291.856 388.791C294.63 390.075 293.51 391.874 287.517 394.607C269.736 402.723 247.864 407.379 224.035 408.91C209.01 409.871 205.347 410.043 202.146 409.768C198.821 409.487 198.589 408.491 201.861 405.964C204.502 404.005 206.646 401.951 208.263 399.832L208.441 399.64C209.504 398.283 210.872 396.964 212.531 395.699ZM224.231 392.609C223.663 393.55 222.898 394.325 221.706 395.287C221.387 395.527 219.377 397.051 218.737 397.566C217.474 398.596 216.407 399.606 215.376 400.794C213.776 402.648 214.006 403.98 216.087 404.831C217.758 405.504 220.106 405.751 223.52 405.799C224.232 405.813 224.765 405.813 225.956 405.813C235.968 405.813 255.973 402.634 266.41 398.027C273.167 395.046 274.714 393.007 270.892 391.215C267.869 389.8 262.623 388.812 247.935 386.635C239.346 385.358 233.532 385.227 229.797 386.168C226.774 386.937 225.601 388.159 224.996 390.171L224.782 391.036C224.57 391.853 224.445 392.238 224.231 392.616V392.609ZM228.321 391.167L228.535 390.329C229.015 388.681 229.886 387.789 231.753 387.315C234.296 386.676 239.043 386.779 246.654 387.912C260.596 389.986 265.699 390.94 268.153 392.087C270.536 393.206 269.487 394.586 263.743 397.12C253.998 401.419 234.989 404.44 225.956 404.44C224.818 404.44 224.302 404.44 223.662 404.426C221.101 404.392 219.519 404.22 218.683 403.884C217.67 403.472 217.527 402.648 218.754 401.226C219.652 400.178 220.721 399.153 221.955 398.157C222.56 397.663 224.57 396.145 224.907 395.877C226.128 394.938 227.059 393.947 227.681 392.925C227.965 392.472 228.108 392.046 228.321 391.167Z" fill="#653424" fill-opacity="0.2"/>
</svg>
